{
	"asset":{
		"generator":"Khronos glTF Blender I/O v4.1.63",
		"version":"2.0"
	},
	"extensionsUsed":[
		"KHR_materials_clearcoat"
	],
	"scene":0,
	"scenes":[
		{
			"name":"Scene",
			"nodes":[
				7
			]
		}
	],
	"nodes":[
		{
			"mesh":0,
			"name":"Cube_Body_0",
			"translation":[
				0.009998602792620659,
				-0.13069255650043488,
				0.11918246001005173
			]
		},
		{
			"mesh":1,
			"name":"Cube_Handles_0",
			"translation":[
				-3.258809783801553e-06,
				0,
				0
			]
		},
		{
			"mesh":2,
			"name":"Cube_Text_0",
			"translation":[
				-3.258809783801553e-06,
				0,
				0
			]
		},
		{
			"mesh":3,
			"name":"Cube_Trim_0",
			"translation":[
				-3.258809783801553e-06,
				0,
				0
			]
		},
		{
			"children":[
				0,
				1,
				2,
				3
			],
			"name":"Cube.005",
			"rotation":[
				0,
				0,
				0.7071068286895752,
				0.7071067094802856
			],
			"scale":[
				210.65206909179688,
				242.6743927001953,
				424.6802062988281
			],
			"translation":[
				3.099682362517342e-05,
				-0.00010742370795924217,
				0
			]
		},
		{
			"children":[
				4
			],
			"name":"RootNode.003",
			"translation":[
				3.099682362517342e-05,
				-0.00010933105659205467,
				0
			]
		},
		{
			"children":[
				5
			],
			"name":"Retro Fridge.fbx",
			"rotation":[
				-1,
				0,
				0,
				1.5178830414797062e-15
			],
			"scale":[
				0.009999999776482582,
				0.009999999776482582,
				0.010000000707805157
			]
		},
		{
			"children":[
				6
			],
			"name":"Sketchfab_model.006",
			"rotation":[
				0.4863685667514801,
				-0.5132695436477661,
				0.5132695436477661,
				0.4863685667514801
			],
			"scale":[
				11.23556137084961,
				11.021222114562988,
				11.021222114562988
			],
			"translation":[
				-415.75927734375,
				1.1484272480010986,
				50.90810775756836
			]
		}
	],
	"materials":[
		{
			"doubleSided":true,
			"name":"Body",
			"pbrMetallicRoughness":{
				"baseColorTexture":{
					"index":0
				},
				"metallicFactor":0,
				"roughnessFactor":0.07000000029802322
			}
		},
		{
			"doubleSided":true,
			"extensions":{
				"KHR_materials_clearcoat":{
					"clearcoatFactor":1,
					"clearcoatRoughnessFactor":0.03999999910593033
				}
			},
			"name":"Handles.001",
			"pbrMetallicRoughness":{
				"baseColorFactor":[
					0.800000011920929,
					0.800000011920929,
					0.800000011920929,
					1
				],
				"roughnessFactor":0.1916908621788025
			}
		},
		{
			"doubleSided":true,
			"extensions":{
				"KHR_materials_clearcoat":{
					"clearcoatFactor":1,
					"clearcoatRoughnessFactor":0.03999999910593033
				}
			},
			"name":"Text",
			"pbrMetallicRoughness":{
				"baseColorFactor":[
					0.06714979559183121,
					0.042651597410440445,
					0.042651597410440445,
					1
				],
				"metallicFactor":0.29688045382499695,
				"roughnessFactor":0
			}
		},
		{
			"doubleSided":true,
			"name":"Trim",
			"pbrMetallicRoughness":{
				"baseColorFactor":[
					0,
					0,
					0,
					1
				],
				"metallicFactor":0.6572052240371704,
				"roughnessFactor":0.11032720655202866
			}
		}
	],
	"meshes":[
		{
			"name":"Cube_Body_0",
			"primitives":[
				{
					"attributes":{
						"POSITION":0,
						"NORMAL":1,
						"TEXCOORD_0":2
					},
					"indices":3,
					"material":0
				}
			]
		},
		{
			"name":"Cube_Handles_0",
			"primitives":[
				{
					"attributes":{
						"POSITION":4,
						"NORMAL":5,
						"TEXCOORD_0":6
					},
					"indices":7,
					"material":1
				}
			]
		},
		{
			"name":"Cube_Text_0",
			"primitives":[
				{
					"attributes":{
						"POSITION":8,
						"NORMAL":9,
						"TEXCOORD_0":10
					},
					"indices":11,
					"material":2
				}
			]
		},
		{
			"name":"Cube_Trim_0",
			"primitives":[
				{
					"attributes":{
						"POSITION":12,
						"NORMAL":13,
						"TEXCOORD_0":14
					},
					"indices":15,
					"material":3
				}
			]
		}
	],
	"textures":[
		{
			"sampler":0,
			"source":0
		}
	],
	"images":[
		{
			"mimeType":"image/jpeg",
			"name":"Body_baseColor",
			"uri":"textures/Body_baseColor.jpg"
		}
	],
	"accessors":[
		{
			"bufferView":0,
			"componentType":5126,
			"count":13726,
			"max":[
				0.9944599866867065,
				0.9944601058959961,
				0.9432599544525146
			],
			"min":[
				-0.9944599866867065,
				-0.9944601058959961,
				-0.9605322480201721
			],
			"type":"VEC3"
		},
		{
			"bufferView":1,
			"componentType":5126,
			"count":13726,
			"type":"VEC3"
		},
		{
			"bufferView":2,
			"componentType":5126,
			"count":13726,
			"type":"VEC2"
		},
		{
			"bufferView":3,
			"componentType":5123,
			"count":76350,
			"type":"SCALAR"
		},
		{
			"bufferView":4,
			"componentType":5126,
			"count":5521,
			"max":[
				1.219395399093628,
				-0.2329222559928894,
				0.47449374198913574
			],
			"min":[
				0.9313032627105713,
				-0.7564730048179626,
				0.26618754863739014
			],
			"type":"VEC3"
		},
		{
			"bufferView":5,
			"componentType":5126,
			"count":5521,
			"type":"VEC3"
		},
		{
			"bufferView":6,
			"componentType":5126,
			"count":5521,
			"type":"VEC2"
		},
		{
			"bufferView":7,
			"componentType":5123,
			"count":27648,
			"type":"SCALAR"
		},
		{
			"bufferView":8,
			"componentType":5126,
			"count":3524,
			"max":[
				0.9735840559005737,
				0.3043713867664337,
				0.7405253648757935
			],
			"min":[
				0.9495593905448914,
				-0.30986690521240234,
				0.6676639914512634
			],
			"type":"VEC3"
		},
		{
			"bufferView":9,
			"componentType":5126,
			"count":3524,
			"type":"VEC3"
		},
		{
			"bufferView":10,
			"componentType":5126,
			"count":3524,
			"type":"VEC2"
		},
		{
			"bufferView":11,
			"componentType":5123,
			"count":20946,
			"type":"SCALAR"
		},
		{
			"bufferView":12,
			"componentType":5126,
			"count":452,
			"max":[
				0.4661940634250641,
				0.9853444695472717,
				0.9378801584243774
			],
			"min":[
				0.3708150088787079,
				-0.9853444695472717,
				-0.9582404494285583
			],
			"type":"VEC3"
		},
		{
			"bufferView":13,
			"componentType":5126,
			"count":452,
			"type":"VEC3"
		},
		{
			"bufferView":14,
			"componentType":5126,
			"count":452,
			"type":"VEC2"
		},
		{
			"bufferView":15,
			"componentType":5123,
			"count":2622,
			"type":"SCALAR"
		}
	],
	"bufferViews":[
		{
			"buffer":0,
			"byteLength":164712,
			"byteOffset":0,
			"target":34962
		},
		{
			"buffer":0,
			"byteLength":164712,
			"byteOffset":164712,
			"target":34962
		},
		{
			"buffer":0,
			"byteLength":109808,
			"byteOffset":329424,
			"target":34962
		},
		{
			"buffer":0,
			"byteLength":152700,
			"byteOffset":439232,
			"target":34963
		},
		{
			"buffer":0,
			"byteLength":66252,
			"byteOffset":591932,
			"target":34962
		},
		{
			"buffer":0,
			"byteLength":66252,
			"byteOffset":658184,
			"target":34962
		},
		{
			"buffer":0,
			"byteLength":44168,
			"byteOffset":724436,
			"target":34962
		},
		{
			"buffer":0,
			"byteLength":55296,
			"byteOffset":768604,
			"target":34963
		},
		{
			"buffer":0,
			"byteLength":42288,
			"byteOffset":823900,
			"target":34962
		},
		{
			"buffer":0,
			"byteLength":42288,
			"byteOffset":866188,
			"target":34962
		},
		{
			"buffer":0,
			"byteLength":28192,
			"byteOffset":908476,
			"target":34962
		},
		{
			"buffer":0,
			"byteLength":41892,
			"byteOffset":936668,
			"target":34963
		},
		{
			"buffer":0,
			"byteLength":5424,
			"byteOffset":978560,
			"target":34962
		},
		{
			"buffer":0,
			"byteLength":5424,
			"byteOffset":983984,
			"target":34962
		},
		{
			"buffer":0,
			"byteLength":3616,
			"byteOffset":989408,
			"target":34962
		},
		{
			"buffer":0,
			"byteLength":5244,
			"byteOffset":993024,
			"target":34963
		}
	],
	"samplers":[
		{
			"magFilter":9729,
			"minFilter":9987
		}
	],
	"buffers":[
		{
			"byteLength":998268,
			"uri":"cora2.bin"
		}
	]
}
