{
	"asset":{
		"generator":"Khronos glTF Blender I/O v4.1.63",
		"version":"2.0"
	},
	"scene":0,
	"scenes":[
		{
			"name":"Scene",
			"nodes":[
				4,
				19,
				22
			]
		}
	],
	"nodes":[
		{
			"mesh":0,
			"name":"pCylinder6_blinn1_0",
			"scale":[
				1.1104884147644043,
				1.4685360193252563,
				1.383209228515625
			],
			"translation":[
				13.545701026916504,
				-0.14231152832508087,
				-8.195688247680664
			]
		},
		{
			"children":[
				0
			],
			"name":"pCylinder6",
			"translation":[
				5.7220458984375e-06,
				0,
				0
			]
		},
		{
			"children":[
				1
			],
			"name":"RootNode.007",
			"translation":[
				5.7220458984375e-06,
				0,
				0
			]
		},
		{
			"children":[
				2
			],
			"name":"692ee32a84814259bfecb829c3b13915.fbx",
			"rotation":[
				0.70710688829422,
				0,
				0,
				0.7071066498756409
			],
			"translation":[
				3.814697265625e-06,
				0,
				0
			]
		},
		{
			"children":[
				3
			],
			"name":"Sketchfab_model.015",
			"rotation":[
				-0.70710688829422,
				0,
				0,
				0.7071066498756409
			],
			"scale":[
				3.247281074523926,
				2.6120903491973877,
				4.621310710906982
			],
			"translation":[
				-67.47024536132812,
				-12.073234558105469,
				26.959697723388672
			]
		},
		{
			"mesh":1,
			"name":"Object_9.002",
			"translation":[
				7.015440132818185e-06,
				0,
				0.966321587562561
			]
		},
		{
			"children":[
				5
			],
			"name":"skein.001_2",
			"rotation":[
				0.6814587116241455,
				0.188716858625412,
				-0.18871691823005676,
				0.6814587116241455
			],
			"translation":[
				1.2170829772949219,
				0.7814182043075562,
				-0.7103049755096436
			]
		},
		{
			"mesh":2,
			"name":"Object_14.002",
			"translation":[
				-1.6748905181884766e-05,
				0,
				5.781650543212891e-06
			]
		},
		{
			"children":[
				7
			],
			"name":"skein.002_4",
			"rotation":[
				0.07010191679000854,
				-0.0608953982591629,
				-0.06769661605358124,
				0.9933754801750183
			],
			"translation":[
				-1.3138618469238281,
				-0.0728408619761467,
				-1.047527551651001
			]
		},
		{
			"mesh":3,
			"name":"Object_4.004",
			"translation":[
				5.7220458984375e-06,
				0,
				0
			]
		},
		{
			"children":[
				9
			],
			"name":"skein_0",
			"translation":[
				4.76837158203125e-06,
				-0.07284066826105118,
				0
			]
		},
		{
			"mesh":4,
			"name":"Object_11.002",
			"translation":[
				7.015440132818185e-06,
				0,
				0.966321587562561
			]
		},
		{
			"mesh":5,
			"name":"Object_12.002",
			"translation":[
				7.015440132818185e-06,
				0,
				0.966321587562561
			]
		},
		{
			"children":[
				11,
				12
			],
			"name":"thread.001_3",
			"rotation":[
				0.6814587116241455,
				0.188716858625412,
				-0.18871691823005676,
				0.6814587116241455
			],
			"translation":[
				1.2170829772949219,
				0.7814182043075562,
				-0.7103049755096436
			]
		},
		{
			"mesh":6,
			"name":"Object_6.003",
			"translation":[
				5.7220458984375e-06,
				0,
				0
			]
		},
		{
			"mesh":7,
			"name":"Object_7.001",
			"translation":[
				5.7220458984375e-06,
				0,
				0
			]
		},
		{
			"children":[
				14,
				15
			],
			"name":"thread_1",
			"translation":[
				4.76837158203125e-06,
				-0.07284066826105118,
				0
			]
		},
		{
			"children":[
				6,
				8,
				10,
				13,
				16
			],
			"name":"GLTF_SceneRootNode.001",
			"rotation":[
				0.70710688829422,
				0,
				0,
				0.7071066498756409
			],
			"translation":[
				7.62939453125e-06,
				0,
				0
			]
		},
		{
			"children":[
				17
			],
			"name":"root.001",
			"translation":[
				1.430511474609375e-05,
				0,
				0
			]
		},
		{
			"children":[
				18
			],
			"name":"Sketchfab_model.016",
			"rotation":[
				-0.70710688829422,
				0,
				0,
				0.7071066498756409
			],
			"scale":[
				1.7611335515975952,
				0.762333333492279,
				1.9632327556610107
			],
			"translation":[
				-22.730554580688477,
				11.125423431396484,
				7.932496070861816
			]
		},
		{
			"mesh":8,
			"name":"Object_2.005",
			"scale":[
				1,
				1.366001844406128,
				1.3660019636154175
			],
			"translation":[
				56.513797760009766,
				23.905555725097656,
				0.8807126879692078
			]
		},
		{
			"children":[
				20
			],
			"name":"button.obj.cleaner.materialmerger.gles",
			"translation":[
				2.288818359375e-05,
				5.10197423864156e-06,
				0
			]
		},
		{
			"children":[
				21
			],
			"name":"Sketchfab_model.017",
			"rotation":[
				-0.70710688829422,
				0,
				0,
				0.7071066498756409
			],
			"scale":[
				0.6269317269325256,
				0.8720908164978027,
				2.2539355754852295
			],
			"translation":[
				-60.67909240722656,
				7.275677680969238,
				24.628419876098633
			]
		}
	],
	"materials":[
		{
			"doubleSided":true,
			"name":"blinn1",
			"normalTexture":{
				"index":0
			},
			"pbrMetallicRoughness":{
				"baseColorTexture":{
					"index":1
				},
				"metallicFactor":0,
				"roughnessFactor":0.6000000238418579
			}
		},
		{
			"doubleSided":true,
			"name":"Material.010",
			"normalTexture":{
				"index":2,
				"texCoord":2
			},
			"pbrMetallicRoughness":{
				"baseColorTexture":{
					"index":3
				},
				"metallicRoughnessTexture":{
					"index":4,
					"texCoord":1
				}
			}
		},
		{
			"alphaMode":"BLEND",
			"doubleSided":true,
			"name":"button_Mat",
			"normalTexture":{
				"index":5
			},
			"pbrMetallicRoughness":{
				"baseColorTexture":{
					"index":6
				},
				"metallicRoughnessTexture":{
					"index":7
				}
			}
		}
	],
	"meshes":[
		{
			"name":"pCylinder6_blinn1_0",
			"primitives":[
				{
					"attributes":{
						"POSITION":0,
						"NORMAL":1,
						"TEXCOORD_0":2,
						"TEXCOORD_1":3
					},
					"indices":4,
					"material":0
				}
			]
		},
		{
			"name":"Object_3.003",
			"primitives":[
				{
					"attributes":{
						"POSITION":5,
						"NORMAL":6,
						"TEXCOORD_0":7,
						"TEXCOORD_1":8,
						"TEXCOORD_2":9,
						"TEXCOORD_3":10
					},
					"indices":11,
					"material":1
				}
			]
		},
		{
			"name":"Object_6.002",
			"primitives":[
				{
					"attributes":{
						"POSITION":12,
						"NORMAL":13,
						"TEXCOORD_0":14,
						"TEXCOORD_1":15,
						"TEXCOORD_2":16,
						"TEXCOORD_3":17
					},
					"indices":11,
					"material":1
				}
			]
		},
		{
			"name":"Object_0.007",
			"primitives":[
				{
					"attributes":{
						"POSITION":18,
						"NORMAL":19,
						"TEXCOORD_0":20,
						"TEXCOORD_1":21,
						"TEXCOORD_2":22,
						"TEXCOORD_3":23
					},
					"indices":11,
					"material":1
				}
			]
		},
		{
			"name":"Object_4.003",
			"primitives":[
				{
					"attributes":{
						"POSITION":24,
						"NORMAL":25,
						"TEXCOORD_0":26,
						"TEXCOORD_1":27,
						"TEXCOORD_2":28,
						"TEXCOORD_3":29
					},
					"indices":30,
					"material":1
				}
			]
		},
		{
			"name":"Object_5.002",
			"primitives":[
				{
					"attributes":{
						"POSITION":31,
						"NORMAL":32,
						"TEXCOORD_0":33,
						"TEXCOORD_1":34,
						"TEXCOORD_2":35,
						"TEXCOORD_3":36
					},
					"indices":37,
					"material":1
				}
			]
		},
		{
			"name":"Object_1.005",
			"primitives":[
				{
					"attributes":{
						"POSITION":38,
						"NORMAL":39,
						"TEXCOORD_0":40,
						"TEXCOORD_1":41,
						"TEXCOORD_2":42,
						"TEXCOORD_3":43
					},
					"indices":30,
					"material":1
				}
			]
		},
		{
			"name":"Object_2.004",
			"primitives":[
				{
					"attributes":{
						"POSITION":44,
						"NORMAL":45,
						"TEXCOORD_0":46,
						"TEXCOORD_1":47,
						"TEXCOORD_2":48,
						"TEXCOORD_3":49
					},
					"indices":37,
					"material":1
				}
			]
		},
		{
			"name":"Object_0.008",
			"primitives":[
				{
					"attributes":{
						"POSITION":50,
						"NORMAL":51,
						"TEXCOORD_0":52
					},
					"indices":53,
					"material":2
				}
			]
		}
	],
	"textures":[
		{
			"sampler":0,
			"source":0
		},
		{
			"sampler":0,
			"source":1
		},
		{
			"sampler":0,
			"source":2
		},
		{
			"sampler":0,
			"source":3
		},
		{
			"sampler":0,
			"source":4
		},
		{
			"sampler":0,
			"source":5
		},
		{
			"sampler":0,
			"source":6
		},
		{
			"sampler":0,
			"source":7
		}
	],
	"images":[
		{
			"mimeType":"image/png",
			"name":"blinn1_normal",
			"uri":"textures/blinn1_normal.png"
		},
		{
			"mimeType":"image/png",
			"name":"blinn1_baseColor",
			"uri":"textures/blinn1_baseColor.png"
		},
		{
			"mimeType":"image/png",
			"name":"Material_normal-1",
			"uri":"textures/Material_normal-1.png"
		},
		{
			"mimeType":"image/jpeg",
			"name":"Material_baseColor",
			"uri":"textures/Material_baseColor.jpg"
		},
		{
			"mimeType":"image/png",
			"name":"Material_metallicRoughness-1",
			"uri":"textures/Material_metallicRoughness-1.png"
		},
		{
			"mimeType":"image/png",
			"name":"button_Mat_normal",
			"uri":"textures/button_Mat_normal.png"
		},
		{
			"mimeType":"image/png",
			"name":"button_Mat_baseColor",
			"uri":"textures/button_Mat_baseColor.png"
		},
		{
			"mimeType":"image/png",
			"name":"button_Mat_metallicRoughness",
			"uri":"textures/button_Mat_metallicRoughness.png"
		}
	],
	"accessors":[
		{
			"bufferView":0,
			"componentType":5126,
			"count":2560,
			"max":[
				2.2672829627990723,
				3.2123913764953613,
				2.267282485961914
			],
			"min":[
				-2.267282009124756,
				-0.08483445644378662,
				-2.2672817707061768
			],
			"type":"VEC3"
		},
		{
			"bufferView":1,
			"componentType":5126,
			"count":2560,
			"type":"VEC3"
		},
		{
			"bufferView":2,
			"componentType":5126,
			"count":2560,
			"type":"VEC2"
		},
		{
			"bufferView":3,
			"componentType":5126,
			"count":2560,
			"type":"VEC2"
		},
		{
			"bufferView":4,
			"componentType":5123,
			"count":10152,
			"type":"SCALAR"
		},
		{
			"bufferView":5,
			"componentType":5126,
			"count":1122,
			"max":[
				0.7751379609107971,
				0.8842965364456177,
				0.7751381397247314
			],
			"min":[
				-0.7751380801200867,
				-0.8842965364456177,
				-0.7751380205154419
			],
			"type":"VEC3"
		},
		{
			"bufferView":6,
			"componentType":5126,
			"count":1122,
			"type":"VEC3"
		},
		{
			"bufferView":7,
			"componentType":5126,
			"count":1122,
			"type":"VEC2"
		},
		{
			"bufferView":8,
			"componentType":5126,
			"count":1122,
			"type":"VEC2"
		},
		{
			"bufferView":9,
			"componentType":5126,
			"count":1122,
			"type":"VEC2"
		},
		{
			"bufferView":10,
			"componentType":5126,
			"count":1122,
			"type":"VEC2"
		},
		{
			"bufferView":11,
			"componentType":5123,
			"count":4992,
			"type":"SCALAR"
		},
		{
			"bufferView":12,
			"componentType":5126,
			"count":1122,
			"max":[
				0.7751379609107971,
				0.8842965364456177,
				0.7751381397247314
			],
			"min":[
				-0.7751380801200867,
				-0.8842965364456177,
				-0.7751380205154419
			],
			"type":"VEC3"
		},
		{
			"bufferView":13,
			"componentType":5126,
			"count":1122,
			"type":"VEC3"
		},
		{
			"bufferView":14,
			"componentType":5126,
			"count":1122,
			"type":"VEC2"
		},
		{
			"bufferView":15,
			"componentType":5126,
			"count":1122,
			"type":"VEC2"
		},
		{
			"bufferView":16,
			"componentType":5126,
			"count":1122,
			"type":"VEC2"
		},
		{
			"bufferView":17,
			"componentType":5126,
			"count":1122,
			"type":"VEC2"
		},
		{
			"bufferView":18,
			"componentType":5126,
			"count":1122,
			"max":[
				0.7751379609107971,
				0.8842965364456177,
				0.7751381397247314
			],
			"min":[
				-0.7751380801200867,
				-0.8842965364456177,
				-0.7751380205154419
			],
			"type":"VEC3"
		},
		{
			"bufferView":19,
			"componentType":5126,
			"count":1122,
			"type":"VEC3"
		},
		{
			"bufferView":20,
			"componentType":5126,
			"count":1122,
			"type":"VEC2"
		},
		{
			"bufferView":21,
			"componentType":5126,
			"count":1122,
			"type":"VEC2"
		},
		{
			"bufferView":22,
			"componentType":5126,
			"count":1122,
			"type":"VEC2"
		},
		{
			"bufferView":23,
			"componentType":5126,
			"count":1122,
			"type":"VEC2"
		},
		{
			"bufferView":24,
			"componentType":5126,
			"count":65532,
			"max":[
				0.6361955404281616,
				0.6617709994316101,
				0.6366027593612671
			],
			"min":[
				-0.6432681083679199,
				-0.6442657113075256,
				-0.6397296786308289
			],
			"type":"VEC3"
		},
		{
			"bufferView":25,
			"componentType":5126,
			"count":65532,
			"type":"VEC3"
		},
		{
			"bufferView":26,
			"componentType":5126,
			"count":65532,
			"type":"VEC2"
		},
		{
			"bufferView":27,
			"componentType":5126,
			"count":65532,
			"type":"VEC2"
		},
		{
			"bufferView":28,
			"componentType":5126,
			"count":65532,
			"type":"VEC2"
		},
		{
			"bufferView":29,
			"componentType":5126,
			"count":65532,
			"type":"VEC2"
		},
		{
			"bufferView":30,
			"componentType":5123,
			"count":315363,
			"type":"SCALAR"
		},
		{
			"bufferView":31,
			"componentType":5126,
			"count":41270,
			"max":[
				0.637423574924469,
				0.6617709994316101,
				0.6397504210472107
			],
			"min":[
				-0.6354217529296875,
				-0.6183843016624451,
				-0.64517742395401
			],
			"type":"VEC3"
		},
		{
			"bufferView":32,
			"componentType":5126,
			"count":41270,
			"type":"VEC3"
		},
		{
			"bufferView":33,
			"componentType":5126,
			"count":41270,
			"type":"VEC2"
		},
		{
			"bufferView":34,
			"componentType":5126,
			"count":41270,
			"type":"VEC2"
		},
		{
			"bufferView":35,
			"componentType":5126,
			"count":41270,
			"type":"VEC2"
		},
		{
			"bufferView":36,
			"componentType":5126,
			"count":41270,
			"type":"VEC2"
		},
		{
			"bufferView":37,
			"componentType":5123,
			"count":176301,
			"type":"SCALAR"
		},
		{
			"bufferView":38,
			"componentType":5126,
			"count":65532,
			"max":[
				0.6361955404281616,
				0.6617709994316101,
				0.6366027593612671
			],
			"min":[
				-0.6432681083679199,
				-0.6442657113075256,
				-0.6397296786308289
			],
			"type":"VEC3"
		},
		{
			"bufferView":39,
			"componentType":5126,
			"count":65532,
			"type":"VEC3"
		},
		{
			"bufferView":40,
			"componentType":5126,
			"count":65532,
			"type":"VEC2"
		},
		{
			"bufferView":41,
			"componentType":5126,
			"count":65532,
			"type":"VEC2"
		},
		{
			"bufferView":42,
			"componentType":5126,
			"count":65532,
			"type":"VEC2"
		},
		{
			"bufferView":43,
			"componentType":5126,
			"count":65532,
			"type":"VEC2"
		},
		{
			"bufferView":44,
			"componentType":5126,
			"count":41270,
			"max":[
				0.637423574924469,
				0.6617709994316101,
				0.6397504210472107
			],
			"min":[
				-0.6354217529296875,
				-0.6183843016624451,
				-0.64517742395401
			],
			"type":"VEC3"
		},
		{
			"bufferView":45,
			"componentType":5126,
			"count":41270,
			"type":"VEC3"
		},
		{
			"bufferView":46,
			"componentType":5126,
			"count":41270,
			"type":"VEC2"
		},
		{
			"bufferView":47,
			"componentType":5126,
			"count":41270,
			"type":"VEC2"
		},
		{
			"bufferView":48,
			"componentType":5126,
			"count":41270,
			"type":"VEC2"
		},
		{
			"bufferView":49,
			"componentType":5126,
			"count":41270,
			"type":"VEC2"
		},
		{
			"bufferView":50,
			"componentType":5126,
			"count":11982,
			"max":[
				2.80430006980896,
				2.097599983215332,
				0.4000999927520752
			],
			"min":[
				-2.80430006980896,
				-2.097599983215332,
				0
			],
			"type":"VEC3"
		},
		{
			"bufferView":51,
			"componentType":5126,
			"count":11982,
			"type":"VEC3"
		},
		{
			"bufferView":52,
			"componentType":5126,
			"count":11982,
			"type":"VEC2"
		},
		{
			"bufferView":53,
			"componentType":5123,
			"count":63936,
			"type":"SCALAR"
		}
	],
	"bufferViews":[
		{
			"buffer":0,
			"byteLength":30720,
			"byteOffset":0,
			"target":34962
		},
		{
			"buffer":0,
			"byteLength":30720,
			"byteOffset":30720,
			"target":34962
		},
		{
			"buffer":0,
			"byteLength":20480,
			"byteOffset":61440,
			"target":34962
		},
		{
			"buffer":0,
			"byteLength":20480,
			"byteOffset":81920,
			"target":34962
		},
		{
			"buffer":0,
			"byteLength":20304,
			"byteOffset":102400,
			"target":34963
		},
		{
			"buffer":0,
			"byteLength":13464,
			"byteOffset":122704,
			"target":34962
		},
		{
			"buffer":0,
			"byteLength":13464,
			"byteOffset":136168,
			"target":34962
		},
		{
			"buffer":0,
			"byteLength":8976,
			"byteOffset":149632,
			"target":34962
		},
		{
			"buffer":0,
			"byteLength":8976,
			"byteOffset":158608,
			"target":34962
		},
		{
			"buffer":0,
			"byteLength":8976,
			"byteOffset":167584,
			"target":34962
		},
		{
			"buffer":0,
			"byteLength":8976,
			"byteOffset":176560,
			"target":34962
		},
		{
			"buffer":0,
			"byteLength":9984,
			"byteOffset":185536,
			"target":34963
		},
		{
			"buffer":0,
			"byteLength":13464,
			"byteOffset":195520,
			"target":34962
		},
		{
			"buffer":0,
			"byteLength":13464,
			"byteOffset":208984,
			"target":34962
		},
		{
			"buffer":0,
			"byteLength":8976,
			"byteOffset":222448,
			"target":34962
		},
		{
			"buffer":0,
			"byteLength":8976,
			"byteOffset":231424,
			"target":34962
		},
		{
			"buffer":0,
			"byteLength":8976,
			"byteOffset":240400,
			"target":34962
		},
		{
			"buffer":0,
			"byteLength":8976,
			"byteOffset":249376,
			"target":34962
		},
		{
			"buffer":0,
			"byteLength":13464,
			"byteOffset":258352,
			"target":34962
		},
		{
			"buffer":0,
			"byteLength":13464,
			"byteOffset":271816,
			"target":34962
		},
		{
			"buffer":0,
			"byteLength":8976,
			"byteOffset":285280,
			"target":34962
		},
		{
			"buffer":0,
			"byteLength":8976,
			"byteOffset":294256,
			"target":34962
		},
		{
			"buffer":0,
			"byteLength":8976,
			"byteOffset":303232,
			"target":34962
		},
		{
			"buffer":0,
			"byteLength":8976,
			"byteOffset":312208,
			"target":34962
		},
		{
			"buffer":0,
			"byteLength":786384,
			"byteOffset":321184,
			"target":34962
		},
		{
			"buffer":0,
			"byteLength":786384,
			"byteOffset":1107568,
			"target":34962
		},
		{
			"buffer":0,
			"byteLength":524256,
			"byteOffset":1893952,
			"target":34962
		},
		{
			"buffer":0,
			"byteLength":524256,
			"byteOffset":2418208,
			"target":34962
		},
		{
			"buffer":0,
			"byteLength":524256,
			"byteOffset":2942464,
			"target":34962
		},
		{
			"buffer":0,
			"byteLength":524256,
			"byteOffset":3466720,
			"target":34962
		},
		{
			"buffer":0,
			"byteLength":630726,
			"byteOffset":3990976,
			"target":34963
		},
		{
			"buffer":0,
			"byteLength":495240,
			"byteOffset":4621704,
			"target":34962
		},
		{
			"buffer":0,
			"byteLength":495240,
			"byteOffset":5116944,
			"target":34962
		},
		{
			"buffer":0,
			"byteLength":330160,
			"byteOffset":5612184,
			"target":34962
		},
		{
			"buffer":0,
			"byteLength":330160,
			"byteOffset":5942344,
			"target":34962
		},
		{
			"buffer":0,
			"byteLength":330160,
			"byteOffset":6272504,
			"target":34962
		},
		{
			"buffer":0,
			"byteLength":330160,
			"byteOffset":6602664,
			"target":34962
		},
		{
			"buffer":0,
			"byteLength":352602,
			"byteOffset":6932824,
			"target":34963
		},
		{
			"buffer":0,
			"byteLength":786384,
			"byteOffset":7285428,
			"target":34962
		},
		{
			"buffer":0,
			"byteLength":786384,
			"byteOffset":8071812,
			"target":34962
		},
		{
			"buffer":0,
			"byteLength":524256,
			"byteOffset":8858196,
			"target":34962
		},
		{
			"buffer":0,
			"byteLength":524256,
			"byteOffset":9382452,
			"target":34962
		},
		{
			"buffer":0,
			"byteLength":524256,
			"byteOffset":9906708,
			"target":34962
		},
		{
			"buffer":0,
			"byteLength":524256,
			"byteOffset":10430964,
			"target":34962
		},
		{
			"buffer":0,
			"byteLength":495240,
			"byteOffset":10955220,
			"target":34962
		},
		{
			"buffer":0,
			"byteLength":495240,
			"byteOffset":11450460,
			"target":34962
		},
		{
			"buffer":0,
			"byteLength":330160,
			"byteOffset":11945700,
			"target":34962
		},
		{
			"buffer":0,
			"byteLength":330160,
			"byteOffset":12275860,
			"target":34962
		},
		{
			"buffer":0,
			"byteLength":330160,
			"byteOffset":12606020,
			"target":34962
		},
		{
			"buffer":0,
			"byteLength":330160,
			"byteOffset":12936180,
			"target":34962
		},
		{
			"buffer":0,
			"byteLength":143784,
			"byteOffset":13266340,
			"target":34962
		},
		{
			"buffer":0,
			"byteLength":143784,
			"byteOffset":13410124,
			"target":34962
		},
		{
			"buffer":0,
			"byteLength":95856,
			"byteOffset":13553908,
			"target":34962
		},
		{
			"buffer":0,
			"byteLength":127872,
			"byteOffset":13649764,
			"target":34963
		}
	],
	"samplers":[
		{
			"magFilter":9729,
			"minFilter":9987
		}
	],
	"buffers":[
		{
			"byteLength":13777636,
			"uri":"table2.bin"
		}
	]
}
