{
	"asset":{
		"generator":"Khronos glTF Blender I/O v4.1.63",
		"version":"2.0"
	},
	"scene":0,
	"scenes":[
		{
			"name":"Scene",
			"nodes":[
				5
			]
		}
	],
	"nodes":[
		{
			"mesh":0,
			"name":"pSphere4_lambert1_0"
		},
		{
			"mesh":1,
			"name":"pSphere4_lambert5_0"
		},
		{
			"children":[
				0,
				1
			],
			"name":"pSphere4",
			"rotation":[
				0.70710688829422,
				0,
				0,
				0.7071066498756409
			]
		},
		{
			"children":[
				2
			],
			"name":"RootNode"
		},
		{
			"children":[
				3
			],
			"name":"459278c1b32b485791629af9e5e5a42d.fbx",
			"rotation":[
				1,
				0,
				0,
				3.5527132552840273e-15
			]
		},
		{
			"children":[
				4
			],
			"name":"Sketchfab_model",
			"rotation":[
				0,
				-0.7071068286895752,
				0.7071068286895752,
				1.001535197904833e-16
			],
			"scale":[
				0.3424476683139801,
				0.16944895684719086,
				0.10172902792692184
			],
			"translation":[
				0,
				-15.617467880249023,
				0
			]
		}
	],
	"materials":[
		{
			"doubleSided":true,
			"name":"lambert1",
			"normalTexture":{
				"index":0,
				"scale":0.5
			},
			"occlusionTexture":{
				"index":1
			},
			"pbrMetallicRoughness":{
				"baseColorTexture":{
					"index":2
				},
				"metallicRoughnessTexture":{
					"index":1
				}
			}
		},
		{
			"doubleSided":true,
			"name":"lambert5",
			"normalTexture":{
				"index":3
			},
			"occlusionTexture":{
				"index":4
			},
			"pbrMetallicRoughness":{
				"baseColorTexture":{
					"index":5
				},
				"metallicRoughnessTexture":{
					"index":4
				}
			}
		}
	],
	"meshes":[
		{
			"name":"pSphere4_lambert1_0",
			"primitives":[
				{
					"attributes":{
						"POSITION":0,
						"NORMAL":1,
						"TEXCOORD_0":2
					},
					"indices":3,
					"material":0
				}
			]
		},
		{
			"name":"pSphere4_lambert5_0",
			"primitives":[
				{
					"attributes":{
						"POSITION":4,
						"NORMAL":5,
						"TEXCOORD_0":6
					},
					"indices":7,
					"material":1
				}
			]
		}
	],
	"textures":[
		{
			"sampler":0,
			"source":0
		},
		{
			"sampler":0,
			"source":1
		},
		{
			"sampler":0,
			"source":2
		},
		{
			"sampler":0,
			"source":0
		},
		{
			"sampler":0,
			"source":1
		},
		{
			"sampler":0,
			"source":2
		}
	],
	"images":[
		{
			"mimeType":"image/png",
			"name":"lambert1_normal",
			"uri":"textures/lambert1_normal.png"
		},
		{
			"mimeType":"image/png",
			"name":"lambert1_metallicRoughness",
			"uri":"textures/lambert1_metallicRoughness.png"
		},
		{
			"mimeType":"image/png",
			"name":"lambert1_baseColor",
			"uri":"textures/lambert1_baseColor.png"
		}
	],
	"accessors":[
		{
			"bufferView":0,
			"componentType":5126,
			"count":5543,
			"max":[
				27.8984375,
				196.55078125,
				27.90625
			],
			"min":[
				-27.8984375,
				-0.27734375,
				-27.90625
			],
			"type":"VEC3"
		},
		{
			"bufferView":1,
			"componentType":5126,
			"count":5543,
			"type":"VEC3"
		},
		{
			"bufferView":2,
			"componentType":5126,
			"count":5543,
			"type":"VEC2"
		},
		{
			"bufferView":3,
			"componentType":5123,
			"count":14571,
			"type":"SCALAR"
		},
		{
			"bufferView":4,
			"componentType":5126,
			"count":184,
			"max":[
				26.6015625,
				191.13671875,
				26.59375
			],
			"min":[
				-26.6015625,
				156.611328125,
				-26.59375
			],
			"type":"VEC3"
		},
		{
			"bufferView":5,
			"componentType":5126,
			"count":184,
			"type":"VEC3"
		},
		{
			"bufferView":6,
			"componentType":5126,
			"count":184,
			"type":"VEC2"
		},
		{
			"bufferView":7,
			"componentType":5123,
			"count":480,
			"type":"SCALAR"
		}
	],
	"bufferViews":[
		{
			"buffer":0,
			"byteLength":66516,
			"byteOffset":0,
			"target":34962
		},
		{
			"buffer":0,
			"byteLength":66516,
			"byteOffset":66516,
			"target":34962
		},
		{
			"buffer":0,
			"byteLength":44344,
			"byteOffset":133032,
			"target":34962
		},
		{
			"buffer":0,
			"byteLength":29142,
			"byteOffset":177376,
			"target":34963
		},
		{
			"buffer":0,
			"byteLength":2208,
			"byteOffset":206520,
			"target":34962
		},
		{
			"buffer":0,
			"byteLength":2208,
			"byteOffset":208728,
			"target":34962
		},
		{
			"buffer":0,
			"byteLength":1472,
			"byteOffset":210936,
			"target":34962
		},
		{
			"buffer":0,
			"byteLength":960,
			"byteOffset":212408,
			"target":34963
		}
	],
	"samplers":[
		{
			"magFilter":9729,
			"minFilter":9987
		}
	],
	"buffers":[
		{
			"byteLength":213368,
			"uri":"table2.bin"
		}
	]
}
