{
	"asset":{
		"generator":"Khronos glTF Blender I/O v4.1.63",
		"version":"2.0"
	},
	"scene":0,
	"scenes":[
		{
			"name":"Scene",
			"nodes":[
				3
			]
		}
	],
	"nodes":[
		{
			"mesh":0,
			"name":"Object_3.001",
			"scale":[
				24.86134147644043,
				2.3238916397094727,
				1
			],
			"translation":[
				-3.051758176297881e-05,
				0,
				0
			]
		},
		{
			"children":[
				0
			],
			"name":"Object_2.001"
		},
		{
			"children":[
				1
			],
			"name":"Collada visual scene group",
			"rotation":[
				0.70710688829422,
				0,
				0,
				0.7071066498756409
			],
			"translation":[
				-1.5258788153005298e-05,
				0,
				0
			]
		},
		{
			"children":[
				2
			],
			"name":"Sketchfab_model.008",
			"rotation":[
				-0.70710688829422,
				0,
				0,
				0.7071066498756409
			],
			"scale":[
				0.18011704087257385,
				3.465580463409424,
				1.4324867725372314
			],
			"translation":[
				0,
				-20.94867706298828,
				0
			]
		}
	],
	"materials":[
		{
			"doubleSided":true,
			"name":"CorF_D",
			"pbrMetallicRoughness":{
				"baseColorTexture":{
					"index":0
				},
				"metallicFactor":0,
				"roughnessFactor":0.6000000238418579
			}
		}
	],
	"meshes":[
		{
			"name":"Object_0.003",
			"primitives":[
				{
					"attributes":{
						"POSITION":0,
						"NORMAL":1,
						"TEXCOORD_0":2,
						"TEXCOORD_1":3,
						"COLOR_0":4
					},
					"indices":5,
					"material":0
				}
			]
		}
	],
	"textures":[
		{
			"sampler":0,
			"source":0
		}
	],
	"images":[
		{
			"mimeType":"image/png",
			"name":"CorF_D_baseColor",
			"uri":"textures/CorF_D_baseColor.png"
		}
	],
	"accessors":[
		{
			"bufferView":0,
			"componentType":5126,
			"count":118,
			"max":[
				0.762805700302124,
				1.1631518602371216,
				1.0503960847854614
			],
			"min":[
				-0.7644740343093872,
				-0.0008828337304294109,
				-0.43308010697364807
			],
			"type":"VEC3"
		},
		{
			"bufferView":1,
			"componentType":5126,
			"count":118,
			"type":"VEC3"
		},
		{
			"bufferView":2,
			"componentType":5126,
			"count":118,
			"type":"VEC2"
		},
		{
			"bufferView":3,
			"componentType":5126,
			"count":118,
			"type":"VEC2"
		},
		{
			"bufferView":4,
			"componentType":5126,
			"count":118,
			"type":"VEC3"
		},
		{
			"bufferView":5,
			"componentType":5123,
			"count":168,
			"type":"SCALAR"
		}
	],
	"bufferViews":[
		{
			"buffer":0,
			"byteLength":1416,
			"byteOffset":0,
			"target":34962
		},
		{
			"buffer":0,
			"byteLength":1416,
			"byteOffset":1416,
			"target":34962
		},
		{
			"buffer":0,
			"byteLength":944,
			"byteOffset":2832,
			"target":34962
		},
		{
			"buffer":0,
			"byteLength":944,
			"byteOffset":3776,
			"target":34962
		},
		{
			"buffer":0,
			"byteLength":1416,
			"byteOffset":4720,
			"target":34962
		},
		{
			"buffer":0,
			"byteLength":336,
			"byteOffset":6136,
			"target":34963
		}
	],
	"samplers":[
		{
			"magFilter":9728,
			"minFilter":9984
		}
	],
	"buffers":[
		{
			"byteLength":6472,
			"uri":"boots.bin"
		}
	]
}
