{
	"asset":{
		"generator":"Khronos glTF Blender I/O v4.1.63",
		"version":"2.0"
	},
	"scene":0,
	"scenes":[
		{
			"name":"Scene",
			"nodes":[
				14,
				15,
				16,
				22,
				26,
				29,
				33
			]
		}
	],
	"nodes":[
		{
			"name":"corpoi.001",
			"rotation":[
				-0.70710688829422,
				0,
				0,
				0.7071066498756409
			],
			"scale":[
				99.99999237060547,
				99.99999237060547,
				99.99999237060547
			],
			"translation":[
				0,
				345.73095703125,
				33.3875732421875
			]
		},
		{
			"name":"Cylinder.001",
			"rotation":[
				-0.70710688829422,
				0,
				0,
				0.7071066498756409
			],
			"scale":[
				131.422119140625,
				131.42210388183594,
				131.42210388183594
			],
			"translation":[
				0,
				-177.56089782714844,
				6.388810157775879
			]
		},
		{
			"mesh":0,
			"name":"RetopoFlow.002_Material.007_0",
			"scale":[
				2.5674984455108643,
				2.5674986839294434,
				2.5674986839294434
			],
			"translation":[
				-1.1078146696090698,
				0.4840511083602905,
				-2.341538906097412
			]
		},
		{
			"children":[
				2
			],
			"name":"RetopoFlow.002",
			"rotation":[
				-0.6802792549133301,
				0,
				0,
				0.7329530119895935
			],
			"scale":[
				132.70726013183594,
				132.70726013183594,
				132.70726013183594
			],
			"translation":[
				0,
				873.647705078125,
				-53.100059509277344
			]
		},
		{
			"mesh":1,
			"name":"RetopoFlow.005_Material.005_0"
		},
		{
			"children":[
				4
			],
			"name":"RetopoFlow.005",
			"rotation":[
				-0.6802792549133301,
				0,
				0,
				0.7329530119895935
			],
			"scale":[
				132.70726013183594,
				132.70726013183594,
				132.70726013183594
			],
			"translation":[
				0,
				875.0670166015625,
				-52.05477523803711
			]
		},
		{
			"mesh":2,
			"name":"RetopoFlow.006_Material_0",
			"scale":[
				2.5674984455108643,
				2.5674986839294434,
				2.5674986839294434
			],
			"translation":[
				-1.1078146696090698,
				0.4840511083602905,
				-2.341538906097412
			]
		},
		{
			"children":[
				6
			],
			"name":"RetopoFlow.006",
			"rotation":[
				-0.6802792549133301,
				0,
				0,
				0.7329530119895935
			],
			"scale":[
				132.70726013183594,
				132.70726013183594,
				132.70726013183594
			],
			"translation":[
				0,
				873.647705078125,
				-53.100059509277344
			]
		},
		{
			"mesh":3,
			"name":"rosto.001_Material.001_0",
			"scale":[
				2.5674984455108643,
				2.5674984455108643,
				2.5674984455108643
			],
			"translation":[
				-1.4701508283615112,
				0.039565980434417725,
				-16.745378494262695
			]
		},
		{
			"children":[
				8
			],
			"name":"rosto.001",
			"rotation":[
				-0.70710688829422,
				0,
				0,
				0.7071066498756409
			],
			"scale":[
				99.99999237060547,
				99.99999237060547,
				99.99999237060547
			]
		},
		{
			"mesh":4,
			"name":"roupa_reto_Material.010_0",
			"scale":[
				2.5674984455108643,
				2.5674984455108643,
				2.5674984455108643
			],
			"translation":[
				-1.4701508283615112,
				0.03956443443894386,
				-11.753105163574219
			]
		},
		{
			"children":[
				10
			],
			"name":"roupa_reto",
			"rotation":[
				-0.70710688829422,
				0,
				0,
				0.7071066498756409
			],
			"scale":[
				99.99999237060547,
				99.99999237060547,
				99.99999237060547
			],
			"translation":[
				0,
				318.4866943359375,
				0
			]
		},
		{
			"children":[
				0,
				1,
				3,
				5,
				7,
				9,
				11
			],
			"name":"RootNode"
		},
		{
			"children":[
				12
			],
			"name":"f45fde9922af4facaa0919835a8e9e4b.fbx",
			"rotation":[
				0.70710688829422,
				0,
				0,
				0.7071066498756409
			]
		},
		{
			"children":[
				13
			],
			"name":"Sketchfab_model",
			"rotation":[
				-0.7071069478988647,
				0,
				0,
				0.7071066498756409
			],
			"scale":[
				0.0009640866774134338,
				0.0009640866774134338,
				0.0009640866774134338
			]
		},
		{
			"name":"Object_5"
		},
		{
			"name":"Object_7"
		},
		{
			"name":"BodenUndDecke",
			"rotation":[
				-0.70710688829422,
				0,
				0,
				0.7071066498756409
			]
		},
		{
			"name":"Rand",
			"rotation":[
				-0.70710688829422,
				0,
				0,
				0.7071066498756409
			],
			"translation":[
				-0.14773891866207123,
				-1.4999998807907104,
				0
			]
		},
		{
			"name":"W\ufffd\ufffdnde",
			"rotation":[
				-0.70710688829422,
				0,
				0,
				0.7071066498756409
			]
		},
		{
			"children":[
				17,
				18,
				19
			],
			"name":"RootNode.001"
		},
		{
			"children":[
				20
			],
			"name":"f7016cf6d1a7467694635d4db136ee58.fbx",
			"rotation":[
				0.70710688829422,
				0,
				0,
				0.7071066498756409
			]
		},
		{
			"children":[
				21
			],
			"name":"Sketchfab_model.001",
			"rotation":[
				-0.7071065902709961,
				0,
				0,
				0.7071069478988647
			],
			"scale":[
				1,
				2.499999761581421,
				1
			]
		},
		{
			"name":"back panel.001_2",
			"rotation":[
				0.70710688829422,
				0,
				0,
				0.7071066498756409
			],
			"translation":[
				3.0517578125e-05,
				0,
				0
			]
		},
		{
			"name":"frame.001_3",
			"rotation":[
				0.70710688829422,
				0,
				0,
				0.7071066498756409
			],
			"translation":[
				3.0517578125e-05,
				0,
				0
			]
		},
		{
			"children":[
				23,
				24
			],
			"name":"GLTF_SceneRootNode",
			"rotation":[
				0.70710688829422,
				0,
				0,
				0.7071066498756409
			],
			"translation":[
				0,
				-2.785733386190259e-06,
				0
			]
		},
		{
			"children":[
				25
			],
			"name":"root",
			"translation":[
				0,
				-2.785733386190259e-06,
				0
			]
		},
		{
			"name":"RootNode.003"
		},
		{
			"children":[
				27
			],
			"name":"f7016cf6d1a7467694635d4db136ee58.fbx.002",
			"rotation":[
				0.70710688829422,
				0,
				0,
				0.7071066498756409
			]
		},
		{
			"children":[
				28
			],
			"name":"Sketchfab_model.004",
			"rotation":[
				-0.7071065902709961,
				0,
				0,
				0.7071069478988647
			],
			"scale":[
				1,
				2.499999761581421,
				1
			],
			"translation":[
				0,
				0,
				5.409501552581787
			]
		},
		{
			"name":"back panel.001_2.003",
			"rotation":[
				0.70710688829422,
				0,
				0,
				0.7071066498756409
			],
			"translation":[
				1.7479454982094467e-05,
				0,
				2.3089602109394036e-05
			]
		},
		{
			"name":"frame.001_3.003",
			"rotation":[
				0.70710688829422,
				0,
				0,
				0.7071066498756409
			],
			"translation":[
				1.7479454982094467e-05,
				0,
				2.3089602109394036e-05
			]
		},
		{
			"children":[
				30,
				31
			],
			"name":"GLTF_SceneRootNode.003",
			"rotation":[
				0.70710688829422,
				0,
				0,
				0.7071066498756409
			],
			"translation":[
				2.2206668290891685e-06,
				-6.475426744145807e-06,
				0
			]
		},
		{
			"children":[
				32
			],
			"name":"root.003",
			"translation":[
				2.2206668290891685e-06,
				-6.475426744145807e-06,
				0
			]
		}
	],
	"materials":[
		{
			"doubleSided":true,
			"name":"Material.007",
			"pbrMetallicRoughness":{
				"baseColorFactor":[
					0.008405200205743313,
					0.004388790111988783,
					0.028854500502347946,
					1
				],
				"metallicFactor":0,
				"roughnessFactor":0.9984326958656311
			}
		},
		{
			"doubleSided":true,
			"name":"Material.005",
			"normalTexture":{
				"index":0
			},
			"pbrMetallicRoughness":{
				"baseColorFactor":[
					0.07015255093574524,
					0.015351631678640842,
					0.20505259931087494,
					1
				],
				"metallicFactor":0,
				"roughnessFactor":0.8211145401000977
			}
		},
		{
			"doubleSided":true,
			"name":"Material.001",
			"normalTexture":{
				"index":1
			},
			"pbrMetallicRoughness":{
				"baseColorTexture":{
					"index":2
				},
				"metallicFactor":0,
				"roughnessFactor":0.5
			}
		},
		{
			"doubleSided":true,
			"name":"Material.002",
			"normalTexture":{
				"index":3
			},
			"occlusionTexture":{
				"index":4
			},
			"pbrMetallicRoughness":{
				"baseColorTexture":{
					"index":5
				},
				"metallicFactor":0,
				"metallicRoughnessTexture":{
					"index":4
				},
				"roughnessFactor":0.8862907886505127
			}
		},
		{
			"doubleSided":true,
			"name":"material_0",
			"normalTexture":{
				"index":6
			},
			"occlusionTexture":{
				"index":7
			},
			"pbrMetallicRoughness":{
				"baseColorFactor":[
					0.00572883989661932,
					0.0024546401109546423,
					0.02113180048763752,
					1
				],
				"metallicFactor":0,
				"metallicRoughnessTexture":{
					"index":7
				},
				"roughnessFactor":0.9989939332008362
			}
		}
	],
	"meshes":[
		{
			"name":"RetopoFlow.002_Material.007_0",
			"primitives":[
				{
					"attributes":{
						"POSITION":0,
						"NORMAL":1,
						"TEXCOORD_0":2
					},
					"indices":3,
					"material":0
				}
			]
		},
		{
			"name":"RetopoFlow.005_Material.005_0",
			"primitives":[
				{
					"attributes":{
						"POSITION":4,
						"NORMAL":5,
						"TEXCOORD_0":6
					},
					"indices":7,
					"material":1
				}
			]
		},
		{
			"name":"RetopoFlow.006_Material_0",
			"primitives":[
				{
					"attributes":{
						"POSITION":8,
						"NORMAL":9,
						"TEXCOORD_0":10
					},
					"indices":11,
					"material":2
				}
			]
		},
		{
			"name":"rosto.001_Material.001_0",
			"primitives":[
				{
					"attributes":{
						"POSITION":12,
						"NORMAL":13,
						"TEXCOORD_0":14
					},
					"indices":15,
					"material":3
				}
			]
		},
		{
			"name":"roupa_reto_Material.010_0",
			"primitives":[
				{
					"attributes":{
						"POSITION":16,
						"NORMAL":17,
						"TEXCOORD_0":18
					},
					"indices":19,
					"material":4
				}
			]
		}
	],
	"textures":[
		{
			"sampler":0,
			"source":0
		},
		{
			"sampler":0,
			"source":1
		},
		{
			"sampler":0,
			"source":2
		},
		{
			"sampler":0,
			"source":3
		},
		{
			"sampler":0,
			"source":4
		},
		{
			"sampler":0,
			"source":5
		},
		{
			"sampler":0,
			"source":6
		},
		{
			"sampler":0,
			"source":7
		}
	],
	"images":[
		{
			"mimeType":"image/png",
			"name":"Material.005_normal",
			"uri":"Textures/Material_005_normal.png"
		},
		{
			"mimeType":"image/png",
			"name":"Material_normal",
			"uri":"Textures/Material_normal.png"
		},
		{
			"mimeType":"image/png",
			"name":"Material_baseColor",
			"uri":"Textures/Material_baseColor.png"
		},
		{
			"mimeType":"image/png",
			"name":"Material.001_normal",
			"uri":"Textures/Material_001_normal.png"
		},
		{
			"mimeType":"image/png",
			"name":"Material.001_metallicRoughness",
			"uri":"Textures/Material_001_metallicRoughness.png"
		},
		{
			"mimeType":"image/png",
			"name":"Material.001_baseColor",
			"uri":"Textures/Material_001_baseColor.png"
		},
		{
			"mimeType":"image/png",
			"name":"material_0_normal",
			"uri":"Textures/material_0_normal.png"
		},
		{
			"mimeType":"image/png",
			"name":"material_0_metallicRoughness",
			"uri":"Textures/material_0_metallicRoughness.png"
		}
	],
	"accessors":[
		{
			"bufferView":0,
			"componentType":5126,
			"count":1364,
			"max":[
				0.2652070224285126,
				-0.6296830177307129,
				1.0910487174987793
			],
			"min":[
				-0.2652070224285126,
				-0.7051092982292175,
				0.950180172920227
			],
			"type":"VEC3"
		},
		{
			"bufferView":1,
			"componentType":5126,
			"count":1364,
			"type":"VEC3"
		},
		{
			"bufferView":2,
			"componentType":5126,
			"count":1364,
			"type":"VEC2"
		},
		{
			"bufferView":3,
			"componentType":5123,
			"count":7824,
			"type":"SCALAR"
		},
		{
			"bufferView":4,
			"componentType":5126,
			"count":504,
			"max":[
				0.10744807124137878,
				-0.6686928272247314,
				0.5897445678710938
			],
			"min":[
				-0.10744807124137878,
				-0.7302775979042053,
				0.520709753036499
			],
			"type":"VEC3"
		},
		{
			"bufferView":5,
			"componentType":5126,
			"count":504,
			"type":"VEC3"
		},
		{
			"bufferView":6,
			"componentType":5126,
			"count":504,
			"type":"VEC2"
		},
		{
			"bufferView":7,
			"componentType":5123,
			"count":2847,
			"type":"SCALAR"
		},
		{
			"bufferView":8,
			"componentType":5126,
			"count":12149,
			"max":[
				0.42281603813171387,
				0.4143081605434418,
				1.6829371452331543
			],
			"min":[
				-0.41734620928764343,
				-0.7399972081184387,
				0.20609761774539948
			],
			"type":"VEC3"
		},
		{
			"bufferView":9,
			"componentType":5126,
			"count":12149,
			"type":"VEC3"
		},
		{
			"bufferView":10,
			"componentType":5126,
			"count":12149,
			"type":"VEC2"
		},
		{
			"bufferView":11,
			"componentType":5123,
			"count":49344,
			"type":"SCALAR"
		},
		{
			"bufferView":12,
			"componentType":5126,
			"count":13830,
			"max":[
				1.965822696685791,
				0.6782766580581665,
				10.561362266540527
			],
			"min":[
				-1.965824842453003,
				-0.6222387552261353,
				0.17142441868782043
			],
			"type":"VEC3"
		},
		{
			"bufferView":13,
			"componentType":5126,
			"count":13830,
			"type":"VEC3"
		},
		{
			"bufferView":14,
			"componentType":5126,
			"count":13830,
			"type":"VEC2"
		},
		{
			"bufferView":15,
			"componentType":5123,
			"count":55260,
			"type":"SCALAR"
		},
		{
			"bufferView":16,
			"componentType":5126,
			"count":5074,
			"max":[
				1.0443044900894165,
				0.8228549957275391,
				6.477184772491455
			],
			"min":[
				-1.0699071884155273,
				-0.4319099187850952,
				-1.0400924682617188
			],
			"type":"VEC3"
		},
		{
			"bufferView":17,
			"componentType":5126,
			"count":5074,
			"type":"VEC3"
		},
		{
			"bufferView":18,
			"componentType":5126,
			"count":5074,
			"type":"VEC2"
		},
		{
			"bufferView":19,
			"componentType":5123,
			"count":18138,
			"type":"SCALAR"
		}
	],
	"bufferViews":[
		{
			"buffer":0,
			"byteLength":16368,
			"byteOffset":0,
			"target":34962
		},
		{
			"buffer":0,
			"byteLength":16368,
			"byteOffset":16368,
			"target":34962
		},
		{
			"buffer":0,
			"byteLength":10912,
			"byteOffset":32736,
			"target":34962
		},
		{
			"buffer":0,
			"byteLength":15648,
			"byteOffset":43648,
			"target":34963
		},
		{
			"buffer":0,
			"byteLength":6048,
			"byteOffset":59296,
			"target":34962
		},
		{
			"buffer":0,
			"byteLength":6048,
			"byteOffset":65344,
			"target":34962
		},
		{
			"buffer":0,
			"byteLength":4032,
			"byteOffset":71392,
			"target":34962
		},
		{
			"buffer":0,
			"byteLength":5694,
			"byteOffset":75424,
			"target":34963
		},
		{
			"buffer":0,
			"byteLength":145788,
			"byteOffset":81120,
			"target":34962
		},
		{
			"buffer":0,
			"byteLength":145788,
			"byteOffset":226908,
			"target":34962
		},
		{
			"buffer":0,
			"byteLength":97192,
			"byteOffset":372696,
			"target":34962
		},
		{
			"buffer":0,
			"byteLength":98688,
			"byteOffset":469888,
			"target":34963
		},
		{
			"buffer":0,
			"byteLength":165960,
			"byteOffset":568576,
			"target":34962
		},
		{
			"buffer":0,
			"byteLength":165960,
			"byteOffset":734536,
			"target":34962
		},
		{
			"buffer":0,
			"byteLength":110640,
			"byteOffset":900496,
			"target":34962
		},
		{
			"buffer":0,
			"byteLength":110520,
			"byteOffset":1011136,
			"target":34963
		},
		{
			"buffer":0,
			"byteLength":60888,
			"byteOffset":1121656,
			"target":34962
		},
		{
			"buffer":0,
			"byteLength":60888,
			"byteOffset":1182544,
			"target":34962
		},
		{
			"buffer":0,
			"byteLength":40592,
			"byteOffset":1243432,
			"target":34962
		},
		{
			"buffer":0,
			"byteLength":36276,
			"byteOffset":1284024,
			"target":34963
		}
	],
	"samplers":[
		{
			"magFilter":9729,
			"minFilter":9987
		}
	],
	"buffers":[
		{
			"byteLength":1320300,
			"uri":"mae.bin"
		}
	]
}
