{
  "accessors": [
    {
      "bufferView": 2,
      "componentType": 5126,
      "count": 36,
      "max": [
        1.1199389696121216,
        0.9062809944152832,
        0.033771999180316925
      ],
      "min": [
        -2.167855978012085,
        -2.747688055038452,
        0.033771999180316925
      ],
      "type": "VEC3"
    },
    {
      "bufferView": 2,
      "byteOffset": 432,
      "componentType": 5126,
      "count": 36,
      "max": [
        0.0,
        -0.0,
        1.0
      ],
      "min": [
        0.0,
        -0.0,
        1.0
      ],
      "type": "VEC3"
    },
    {
      "bufferView": 1,
      "componentType": 5126,
      "count": 36,
      "max": [
        1.8458739519119263,
        1.8458739519119263
      ],
      "min": [
        -0.845874011516571,
        -0.845874011516571
      ],
      "type": "VEC2"
    },
    {
      "bufferView": 0,
      "componentType": 5125,
      "count": 150,
      "type": "SCALAR"
    },
    {
      "bufferView": 2,
      "byteOffset": 864,
      "componentType": 5126,
      "count": 345,
      "max": [
        0.5,
        2.5,
        2.5500121116638184
      ],
      "min": [
        -1.5,
        2.173264980316162,
        0.0
      ],
      "type": "VEC3"
    },
    {
      "bufferView": 2,
      "byteOffset": 5004,
      "componentType": 5126,
      "count": 345,
      "max": [
        0.9999857544898987,
        0.9788237810134888,
        1.0
      ],
      "min": [
        -0.9999279975891113,
        -1.0,
        -0.9677746891975403
      ],
      "type": "VEC3"
    },
    {
      "bufferView": 1,
      "byteOffset": 288,
      "componentType": 5126,
      "count": 345,
      "max": [
        0.9896429777145386,
        0.9906970262527466
      ],
      "min": [
        0.006434999871999025,
        0.3424049913883209
      ],
      "type": "VEC2"
    },
    {
      "bufferView": 0,
      "byteOffset": 600,
      "componentType": 5125,
      "count": 828,
      "type": "SCALAR"
    },
    {
      "bufferView": 2,
      "byteOffset": 9144,
      "componentType": 5126,
      "count": 3090,
      "max": [
        -2.7297699451446533,
        0.036970000714063644,
        3.120410919189453
      ],
      "min": [
        -4.5,
        -2.043473958969116,
        -0.0
      ],
      "type": "VEC3"
    },
    {
      "bufferView": 2,
      "byteOffset": 46224,
      "componentType": 5126,
      "count": 3090,
      "max": [
        1.0,
        1.0,
        1.0
      ],
      "min": [
        -1.0,
        -1.0,
        -1.0
      ],
      "type": "VEC3"
    },
    {
      "bufferView": 1,
      "byteOffset": 3048,
      "componentType": 5126,
      "count": 3090,
      "max": [
        1.0907280445098877,
        0.9921870231628418
      ],
      "min": [
        -0.5259230136871338,
        0.009363999590277672
      ],
      "type": "VEC2"
    },
    {
      "bufferView": 0,
      "byteOffset": 3912,
      "componentType": 5125,
      "count": 5502,
      "type": "SCALAR"
    },
    {
      "bufferView": 2,
      "byteOffset": 83304,
      "componentType": 5126,
      "count": 198,
      "max": [
        3.5,
        3.5,
        0.0
      ],
      "min": [
        -4.5,
        -4.5,
        0.0
      ],
      "type": "VEC3"
    },
    {
      "bufferView": 2,
      "byteOffset": 85680,
      "componentType": 5126,
      "count": 198,
      "max": [
        0.0,
        -0.0,
        1.0
      ],
      "min": [
        0.0,
        -0.0,
        1.0
      ],
      "type": "VEC3"
    },
    {
      "bufferView": 1,
      "byteOffset": 27768,
      "componentType": 5126,
      "count": 198,
      "max": [
        1.0,
        1.0
      ],
      "min": [
        0.0,
        0.0
      ],
      "type": "VEC2"
    },
    {
      "bufferView": 0,
      "byteOffset": 25920,
      "componentType": 5125,
      "count": 282,
      "type": "SCALAR"
    },
    {
      "bufferView": 2,
      "byteOffset": 88056,
      "componentType": 5126,
      "count": 358,
      "max": [
        2.562652111053467,
        -1.4938360452651978,
        0.9238619804382324
      ],
      "min": [
        1.4373480081558228,
        -2.56406307220459,
        -0.0
      ],
      "type": "VEC3"
    },
    {
      "bufferView": 2,
      "byteOffset": 92352,
      "componentType": 5126,
      "count": 358,
      "max": [
        0.9432602524757385,
        0.9918023347854614,
        1.0
      ],
      "min": [
        -0.9510565400123596,
        -0.9918023347854614,
        -1.0
      ],
      "type": "VEC3"
    },
    {
      "bufferView": 1,
      "byteOffset": 29352,
      "componentType": 5126,
      "count": 358,
      "max": [
        0.9930070042610168,
        0.9867640137672424
      ],
      "min": [
        0.009091000072658062,
        0.009979000315070152
      ],
      "type": "VEC2"
    },
    {
      "bufferView": 0,
      "byteOffset": 27048,
      "componentType": 5125,
      "count": 768,
      "type": "SCALAR"
    },
    {
      "bufferView": 2,
      "byteOffset": 96648,
      "componentType": 5126,
      "count": 1875,
      "max": [
        3.5,
        3.5,
        3.0
      ],
      "min": [
        -4.5,
        -4.5,
        0.0
      ],
      "type": "VEC3"
    },
    {
      "bufferView": 2,
      "byteOffset": 119148,
      "componentType": 5126,
      "count": 1875,
      "max": [
        1.0,
        1.0,
        1.0
      ],
      "min": [
        -1.0,
        -1.0,
        -1.0
      ],
      "type": "VEC3"
    },
    {
      "bufferView": 1,
      "byteOffset": 32216,
      "componentType": 5126,
      "count": 1875,
      "max": [
        0.996740996837616,
        1.0
      ],
      "min": [
        0.0,
        0.0015800000401213765
      ],
      "type": "VEC2"
    },
    {
      "bufferView": 0,
      "byteOffset": 30120,
      "componentType": 5125,
      "count": 3363,
      "type": "SCALAR"
    },
    {
      "bufferView": 2,
      "byteOffset": 141648,
      "componentType": 5126,
      "count": 3260,
      "max": [
        2.4346160888671875,
        1.5750360488891602,
        2.35910701751709
      ],
      "min": [
        -2.998163938522339,
        -4.174088954925537,
        -0.002104999963194132
      ],
      "type": "VEC3"
    },
    {
      "bufferView": 2,
      "byteOffset": 180768,
      "componentType": 5126,
      "count": 3260,
      "max": [
        0.9999915361404419,
        1.0,
        0.9999989867210388
      ],
      "min": [
        -0.9999930262565613,
        -1.0,
        -0.9999998211860657
      ],
      "type": "VEC3"
    },
    {
      "bufferView": 1,
      "byteOffset": 47216,
      "componentType": 5126,
      "count": 3260,
      "max": [
        0.7430419921875,
        0.9991909861564636
      ],
      "min": [
        0.004567000083625317,
        0.0022150001022964716
      ],
      "type": "VEC2"
    },
    {
      "bufferView": 0,
      "byteOffset": 43572,
      "componentType": 5125,
      "count": 5184,
      "type": "SCALAR"
    },
    {
      "bufferView": 2,
      "byteOffset": 219888,
      "componentType": 5126,
      "count": 1728,
      "max": [
        2.4346160888671875,
        1.5750360488891602,
        2.35910701751709
      ],
      "min": [
        -2.998163938522339,
        -4.174088954925537,
        -0.002104999963194132
      ],
      "type": "VEC3"
    },
    {
      "bufferView": 2,
      "byteOffset": 240624,
      "componentType": 5126,
      "count": 1728,
      "max": [
        0.9999969005584717,
        0.8726469874382019,
        1.0
      ],
      "min": [
        -0.9999972581863403,
        -0.8753645420074463,
        -1.0
      ],
      "type": "VEC3"
    },
    {
      "bufferView": 1,
      "byteOffset": 73296,
      "componentType": 5126,
      "count": 1728,
      "max": [
        0.9957939982414246,
        0.9980170130729675
      ],
      "min": [
        0.002078999998047948,
        0.003361999988555908
      ],
      "type": "VEC2"
    },
    {
      "bufferView": 0,
      "byteOffset": 64308,
      "componentType": 5125,
      "count": 3456,
      "type": "SCALAR"
    },
    {
      "bufferView": 2,
      "byteOffset": 261360,
      "componentType": 5126,
      "count": 164,
      "max": [
        3.528887987136841,
        3.5152719020843506,
        3.012789011001587
      ],
      "min": [
        -3.8762919902801514,
        -4.257080078125,
        -0.06605800241231918
      ],
      "type": "VEC3"
    },
    {
      "bufferView": 2,
      "byteOffset": 263328,
      "componentType": 5126,
      "count": 164,
      "max": [
        0.6773451566696167,
        0.9971683621406555,
        0.5294190645217896
      ],
      "min": [
        -0.9634407758712769,
        -0.9913182258605957,
        -0.6467278003692627
      ],
      "type": "VEC3"
    },
    {
      "bufferView": 1,
      "byteOffset": 87120,
      "componentType": 5126,
      "count": 164,
      "max": [
        1.0,
        1.0
      ],
      "min": [
        0.0,
        0.0
      ],
      "type": "VEC2"
    },
    {
      "bufferView": 0,
      "byteOffset": 78132,
      "componentType": 5125,
      "count": 606,
      "type": "SCALAR"
    },
    {
      "bufferView": 2,
      "byteOffset": 265296,
      "componentType": 5126,
      "count": 1960,
      "max": [
        2.720388889312744,
        2.7452991008758545,
        2.5563108921051025
      ],
      "min": [
        -4.18095588684082,
        -4.25,
        -0.007592000067234039
      ],
      "type": "VEC3"
    },
    {
      "bufferView": 2,
      "byteOffset": 288816,
      "componentType": 5126,
      "count": 1960,
      "max": [
        0.9991289973258972,
        1.0,
        1.0
      ],
      "min": [
        -0.9998826384544373,
        -1.0,
        -1.0
      ],
      "type": "VEC3"
    },
    {
      "bufferView": 1,
      "byteOffset": 88432,
      "componentType": 5126,
      "count": 1960,
      "max": [
        0.9944549798965454,
        0.990106999874115
      ],
      "min": [
        0.005841000005602837,
        0.0004939999780617654
      ],
      "type": "VEC2"
    },
    {
      "bufferView": 0,
      "byteOffset": 80556,
      "componentType": 5125,
      "count": 4296,
      "type": "SCALAR"
    },
    {
      "bufferView": 2,
      "byteOffset": 312336,
      "componentType": 5126,
      "count": 6944,
      "max": [
        2.3663389682769775,
        2.362605094909668,
        2.301054000854492
      ],
      "min": [
        -2.614500045776367,
        -4.216127872467041,
        -0.004563999827951193
      ],
      "type": "VEC3"
    },
    {
      "bufferView": 2,
      "byteOffset": 395664,
      "componentType": 5126,
      "count": 6944,
      "max": [
        0.9949413537979126,
        0.9994882345199585,
        0.999945342540741
      ],
      "min": [
        -0.9985247850418091,
        -0.999447762966156,
        -0.9999988675117493
      ],
      "type": "VEC3"
    },
    {
      "bufferView": 1,
      "byteOffset": 104112,
      "componentType": 5126,
      "count": 6944,
      "max": [
        0.993930995464325,
        1.1728039979934692
      ],
      "min": [
        0.0019130000146105886,
        0.00023499999952036887
      ],
      "type": "VEC2"
    },
    {
      "bufferView": 0,
      "byteOffset": 97740,
      "componentType": 5125,
      "count": 16980,
      "type": "SCALAR"
    }
  ],
  "asset": {
    "extras": {
      "author": "RedDevon (https://sketchfab.com/RedDevon)",
      "license": "CC-BY-4.0 (http://creativecommons.org/licenses/by/4.0/)",
      "source": "https://sketchfab.com/3d-models/scary-witch-hut-scene-f505719743c44d6cb05f4422888cdf8f",
      "title": "Scary Witch Hut Scene"
    },
    "generator": "Sketchfab-12.68.0",
    "version": "2.0"
  },
  "bufferViews": [
    {
      "buffer": 0,
      "byteLength": 165660,
      "name": "floatBufferViews",
      "target": 34963
    },
    {
      "buffer": 0,
      "byteLength": 159664,
      "byteOffset": 165660,
      "byteStride": 8,
      "name": "floatBufferViews",
      "target": 34962
    },
    {
      "buffer": 0,
      "byteLength": 478992,
      "byteOffset": 325324,
      "byteStride": 12,
      "name": "floatBufferViews",
      "target": 34962
    }
  ],
  "buffers": [
    {
      "byteLength": 804316,
      "uri": "scene.bin"
    }
  ],
  "extensionsRequired": [
    "KHR_materials_pbrSpecularGlossiness"
  ],
  "extensionsUsed": [
    "KHR_materials_pbrSpecularGlossiness"
  ],
  "images": [
    {
      "uri": "textures/blinn10SG_diffuse.png"
    },
    {
      "uri": "textures/blinn10SG_specularGlossiness.png"
    },
    {
      "uri": "textures/blinn1SG_diffuse.png"
    },
    {
      "uri": "textures/blinn1SG_specularGlossiness.png"
    },
    {
      "uri": "textures/blinn3SG_diffuse.png"
    },
    {
      "uri": "textures/blinn3SG_specularGlossiness.png"
    },
    {
      "uri": "textures/blinn4SG_diffuse.png"
    },
    {
      "uri": "textures/blinn4SG_specularGlossiness.png"
    },
    {
      "uri": "textures/blinn5SG_diffuse.png"
    },
    {
      "uri": "textures/blinn5SG_specularGlossiness.png"
    },
    {
      "uri": "textures/blinn6SG_diffuse.png"
    },
    {
      "uri": "textures/blinn6SG_specularGlossiness.png"
    },
    {
      "uri": "textures/blinn7SG_diffuse.png"
    },
    {
      "uri": "textures/blinn7SG_specularGlossiness.png"
    },
    {
      "uri": "textures/blinn8SG_diffuse.png"
    },
    {
      "uri": "textures/blinn8SG_specularGlossiness.png"
    },
    {
      "uri": "textures/blinn9SG_diffuse.png"
    }
  ],
  "materials": [
    {
      "doubleSided": true,
      "extensions": {
        "KHR_materials_pbrSpecularGlossiness": {
          "diffuseFactor": [
            1.0,
            1.0,
            1.0,
            1.0
          ],
          "diffuseTexture": {
            "index": 0
          },
          "glossinessFactor": 0.0,
          "specularFactor": [
            0.05,
            0.05,
            0.05
          ],
          "specularGlossinessTexture": {
            "index": 1
          }
        }
      },
      "name": "blinn10SG"
    },
    {
      "doubleSided": true,
      "extensions": {
        "KHR_materials_pbrSpecularGlossiness": {
          "diffuseFactor": [
            1.0,
            1.0,
            1.0,
            1.0
          ],
          "diffuseTexture": {
            "index": 2
          },
          "glossinessFactor": 0.0,
          "specularFactor": [
            0.05,
            0.05,
            0.05
          ],
          "specularGlossinessTexture": {
            "index": 3
          }
        }
      },
      "name": "blinn1SG"
    },
    {
      "doubleSided": true,
      "extensions": {
        "KHR_materials_pbrSpecularGlossiness": {
          "diffuseFactor": [
            1.0,
            1.0,
            1.0,
            1.0
          ],
          "diffuseTexture": {
            "index": 4
          },
          "glossinessFactor": 0.0,
          "specularFactor": [
            0.05,
            0.05,
            0.05
          ],
          "specularGlossinessTexture": {
            "index": 5
          }
        }
      },
      "name": "blinn3SG"
    },
    {
      "doubleSided": true,
      "extensions": {
        "KHR_materials_pbrSpecularGlossiness": {
          "diffuseFactor": [
            0.396921304318747,
            0.396921304318747,
            0.396921304318747,
            1.0
          ],
          "diffuseTexture": {
            "index": 6
          },
          "glossinessFactor": 0.0,
          "specularFactor": [
            0.6887696161586683,
            0.6887696161586683,
            0.6887696161586683
          ],
          "specularGlossinessTexture": {
            "index": 7
          }
        }
      },
      "name": "blinn4SG"
    },
    {
      "doubleSided": true,
      "extensions": {
        "KHR_materials_pbrSpecularGlossiness": {
          "diffuseFactor": [
            1.0,
            1.0,
            1.0,
            1.0
          ],
          "diffuseTexture": {
            "index": 8
          },
          "glossinessFactor": 0.0,
          "specularFactor": [
            0.05,
            0.05,
            0.05
          ],
          "specularGlossinessTexture": {
            "index": 9
          }
        }
      },
      "name": "blinn5SG"
    },
    {
      "alphaCutoff": 0.22667645574545964,
      "alphaMode": "MASK",
      "extensions": {
        "KHR_materials_pbrSpecularGlossiness": {
          "diffuseFactor": [
            0.7738920404453119,
            0.7738920404453119,
            0.7738920404453119,
            1.0
          ],
          "diffuseTexture": {
            "index": 10
          },
          "glossinessFactor": 0.23275662890879134,
          "specularFactor": [
            0.6036471918720245,
            0.6036471918720245,
            0.6036471918720245
          ],
          "specularGlossinessTexture": {
            "index": 11
          }
        }
      },
      "name": "blinn6SG"
    },
    {
      "doubleSided": true,
      "extensions": {
        "KHR_materials_pbrSpecularGlossiness": {
          "diffuseFactor": [
            1.0,
            1.0,
            1.0,
            1.0
          ],
          "diffuseTexture": {
            "index": 12
          },
          "glossinessFactor": 0.0,
          "specularFactor": [
            0.05,
            0.05,
            0.05
          ],
          "specularGlossinessTexture": {
            "index": 13
          }
        }
      },
      "name": "blinn7SG"
    },
    {
      "doubleSided": true,
      "extensions": {
        "KHR_materials_pbrSpecularGlossiness": {
          "diffuseFactor": [
            1.0,
            1.0,
            1.0,
            1.0
          ],
          "diffuseTexture": {
            "index": 14
          },
          "glossinessFactor": 0.0,
          "specularFactor": [
            0.05,
            0.05,
            0.05
          ],
          "specularGlossinessTexture": {
            "index": 15
          }
        }
      },
      "name": "blinn8SG"
    },
    {
      "doubleSided": true,
      "extensions": {
        "KHR_materials_pbrSpecularGlossiness": {
          "diffuseFactor": [
            1.0,
            1.0,
            1.0,
            1.0
          ],
          "diffuseTexture": {
            "index": 16
          },
          "glossinessFactor": 0.0,
          "specularFactor": [
            0.05,
            0.05,
            0.05
          ]
        }
      },
      "name": "blinn9SG"
    }
  ],
  "meshes": [
    {
      "name": "Object_0",
      "primitives": [
        {
          "attributes": {
            "NORMAL": 1,
            "POSITION": 0,
            "TEXCOORD_0": 2
          },
          "indices": 3,
          "material": 0,
          "mode": 4
        }
      ]
    },
    {
      "name": "Object_1",
      "primitives": [
        {
          "attributes": {
            "NORMAL": 5,
            "POSITION": 4,
            "TEXCOORD_0": 6
          },
          "indices": 7,
          "material": 3,
          "mode": 4
        }
      ]
    },
    {
      "name": "Object_2",
      "primitives": [
        {
          "attributes": {
            "NORMAL": 9,
            "POSITION": 8,
            "TEXCOORD_0": 10
          },
          "indices": 11,
          "material": 2,
          "mode": 4
        }
      ]
    },
    {
      "name": "Object_3",
      "primitives": [
        {
          "attributes": {
            "NORMAL": 13,
            "POSITION": 12,
            "TEXCOORD_0": 14
          },
          "indices": 15,
          "material": 1,
          "mode": 4
        }
      ]
    },
    {
      "name": "Object_4",
      "primitives": [
        {
          "attributes": {
            "NORMAL": 17,
            "POSITION": 16,
            "TEXCOORD_0": 18
          },
          "indices": 19,
          "material": 4,
          "mode": 4
        }
      ]
    },
    {
      "name": "Object_5",
      "primitives": [
        {
          "attributes": {
            "NORMAL": 21,
            "POSITION": 20,
            "TEXCOORD_0": 22
          },
          "indices": 23,
          "material": 3,
          "mode": 4
        }
      ]
    },
    {
      "name": "Object_6",
      "primitives": [
        {
          "attributes": {
            "NORMAL": 25,
            "POSITION": 24,
            "TEXCOORD_0": 26
          },
          "indices": 27,
          "material": 6,
          "mode": 4
        }
      ]
    },
    {
      "name": "Object_7",
      "primitives": [
        {
          "attributes": {
            "NORMAL": 29,
            "POSITION": 28,
            "TEXCOORD_0": 30
          },
          "indices": 31,
          "material": 6,
          "mode": 4
        }
      ]
    },
    {
      "name": "Object_8",
      "primitives": [
        {
          "attributes": {
            "NORMAL": 33,
            "POSITION": 32,
            "TEXCOORD_0": 34
          },
          "indices": 35,
          "material": 5,
          "mode": 4
        }
      ]
    },
    {
      "name": "Object_9",
      "primitives": [
        {
          "attributes": {
            "NORMAL": 37,
            "POSITION": 36,
            "TEXCOORD_0": 38
          },
          "indices": 39,
          "material": 7,
          "mode": 4
        }
      ]
    },
    {
      "name": "Object_10",
      "primitives": [
        {
          "attributes": {
            "NORMAL": 41,
            "POSITION": 40,
            "TEXCOORD_0": 42
          },
          "indices": 43,
          "material": 8,
          "mode": 4
        }
      ]
    }
  ],
  "nodes": [
    {
      "children": [
        1
      ],
      "matrix": [
        0.800000011920929,
        0.0,
        0.0,
        0.0,
        0.0,
        1.77635686587003e-16,
        -0.800000011920929,
        0.0,
        0.0,
        0.800000011920929,
        1.77635686587003e-16,
        0.0,
        0.0,
        0.0,
        0.0,
        1.0
      ],
      "name": "Sketchfab_model"
    },
    {
      "children": [
        2,
        3,
        4,
        5,
        6,
        7,
        8,
        9,
        10,
        11,
        12
      ],
      "name": "Environment_Scene.obj.cleaner.materialmerger.gles"
    },
    {
      "mesh": 0,
      "name": "Object_2"
    },
    {
      "mesh": 1,
      "name": "Object_3"
    },
    {
      "mesh": 2,
      "name": "Object_4"
    },
    {
      "mesh": 3,
      "name": "Object_5"
    },
    {
      "mesh": 4,
      "name": "Object_6"
    },
    {
      "mesh": 5,
      "name": "Object_7"
    },
    {
      "mesh": 6,
      "name": "Object_8"
    },
    {
      "mesh": 7,
      "name": "Object_9"
    },
    {
      "mesh": 8,
      "name": "Object_10"
    },
    {
      "mesh": 9,
      "name": "Object_11"
    },
    {
      "mesh": 10,
      "name": "Object_12"
    }
  ],
  "samplers": [
    {
      "magFilter": 9729,
      "minFilter": 9987,
      "wrapS": 10497,
      "wrapT": 10497
    },
    {
      "magFilter": 9728,
      "minFilter": 9728,
      "wrapS": 10497,
      "wrapT": 10497
    }
  ],
  "scene": 0,
  "scenes": [
    {
      "name": "Sketchfab_Scene",
      "nodes": [
        0
      ]
    }
  ],
  "textures": [
    {
      "sampler": 0,
      "source": 0
    },
    {
      "sampler": 0,
      "source": 1
    },
    {
      "sampler": 0,
      "source": 2
    },
    {
      "sampler": 0,
      "source": 3
    },
    {
      "sampler": 0,
      "source": 4
    },
    {
      "sampler": 0,
      "source": 5
    },
    {
      "sampler": 0,
      "source": 6
    },
    {
      "sampler": 0,
      "source": 7
    },
    {
      "sampler": 0,
      "source": 8
    },
    {
      "sampler": 0,
      "source": 9
    },
    {
      "sampler": 0,
      "source": 10
    },
    {
      "sampler": 1,
      "source": 11
    },
    {
      "sampler": 0,
      "source": 12
    },
    {
      "sampler": 0,
      "source": 13
    },
    {
      "sampler": 0,
      "source": 14
    },
    {
      "sampler": 0,
      "source": 15
    },
    {
      "sampler": 0,
      "source": 16
    }
  ]
}
