{
  "accessors": [
    {
      "bufferView": 2,
      "componentType": 5126,
      "count": 118,
      "max": [
        4.626587867736816,
        1.927590012550354,
        1.1219329833984375
      ],
      "min": [
        -4.626587867736816,
        -1.927590012550354,
        -0.9999920129776001
      ],
      "type": "VEC3"
    },
    {
      "bufferView": 2,
      "byteOffset": 1416,
      "componentType": 5126,
      "count": 118,
      "max": [
        1.0,
        1.0,
        1.0
      ],
      "min": [
        -1.0,
        -1.0,
        -1.0
      ],
      "type": "VEC3"
    },
    {
      "bufferView": 1,
      "componentType": 5126,
      "count": 118,
      "max": [
        0.9282400012016296,
        0.9972370266914368
      ],
      "min": [
        0.0027630000840872526,
        0.0027630000840872526
      ],
      "type": "VEC2"
    },
    {
      "bufferView": 0,
      "componentType": 5125,
      "count": 270,
      "type": "SCALAR"
    },
    {
      "bufferView": 2,
      "byteOffset": 2832,
      "componentType": 5126,
      "count": 248,
      "max": [
        -3.970309019088745,
        1.3232430219650269,
        -0.41243600845336914
      ],
      "min": [
        -4.035262107849121,
        -0.9120129942893982,
        -0.8889769911766052
      ],
      "type": "VEC3"
    },
    {
      "bufferView": 2,
      "byteOffset": 5808,
      "componentType": 5126,
      "count": 248,
      "max": [
        0.7747166752815247,
        0.8944271802902222,
        1.0
      ],
      "min": [
        -0.7747166752815247,
        -0.8944271802902222,
        -1.0
      ],
      "type": "VEC3"
    },
    {
      "bufferView": 1,
      "byteOffset": 944,
      "componentType": 5126,
      "count": 248,
      "max": [
        0.8184390068054199,
        0.47406500577926636
      ],
      "min": [
        0.7985619902610779,
        0.188400998711586
      ],
      "type": "VEC2"
    },
    {
      "bufferView": 0,
      "byteOffset": 1080,
      "componentType": 5125,
      "count": 432,
      "type": "SCALAR"
    },
    {
      "bufferView": 2,
      "byteOffset": 8784,
      "componentType": 5126,
      "count": 991,
      "max": [
        4.62659215927124,
        1.9276679754257202,
        1.1219329833984375
      ],
      "min": [
        -4.352919101715088,
        -1.0,
        -1.0003390312194824
      ],
      "type": "VEC3"
    },
    {
      "bufferView": 2,
      "byteOffset": 20676,
      "componentType": 5126,
      "count": 991,
      "max": [
        1.0,
        1.0,
        1.0
      ],
      "min": [
        -1.0,
        -1.0,
        -1.0
      ],
      "type": "VEC3"
    },
    {
      "bufferView": 1,
      "byteOffset": 2928,
      "componentType": 5126,
      "count": 991,
      "max": [
        0.8972150087356567,
        0.9977890253067017
      ],
      "min": [
        0.002211000071838498,
        0.002211000071838498
      ],
      "type": "VEC2"
    },
    {
      "bufferView": 0,
      "byteOffset": 2808,
      "componentType": 5125,
      "count": 1509,
      "type": "SCALAR"
    },
    {
      "bufferView": 2,
      "byteOffset": 32568,
      "componentType": 5126,
      "count": 768,
      "max": [
        4.352090835571289,
        0.06726399809122086,
        0.3934819996356964
      ],
      "min": [
        -1.8463339805603027,
        -1.6606709957122803,
        -0.8276100158691406
      ],
      "type": "VEC3"
    },
    {
      "bufferView": 2,
      "byteOffset": 41784,
      "componentType": 5126,
      "count": 768,
      "max": [
        0.9995856881141663,
        0.9948156476020813,
        0.7949057817459106
      ],
      "min": [
        -0.9984212517738342,
        -0.9975322484970093,
        -0.9815254211425781
      ],
      "type": "VEC3"
    },
    {
      "bufferView": 1,
      "byteOffset": 10856,
      "componentType": 5126,
      "count": 768,
      "max": [
        0.8572520017623901,
        0.9980250000953674
      ],
      "min": [
        0.0019749999046325684,
        0.0019749999046325684
      ],
      "type": "VEC2"
    },
    {
      "bufferView": 0,
      "byteOffset": 8844,
      "componentType": 5125,
      "count": 768,
      "type": "SCALAR"
    },
    {
      "bufferView": 2,
      "byteOffset": 51000,
      "componentType": 5126,
      "count": 8483,
      "max": [
        4.6212639808654785,
        1.927590012550354,
        0.827800989151001
      ],
      "min": [
        -4.465334892272949,
        -1.9275959730148315,
        -0.9999960064888
      ],
      "type": "VEC3"
    },
    {
      "bufferView": 2,
      "byteOffset": 152796,
      "componentType": 5126,
      "count": 8483,
      "max": [
        1.0,
        1.0,
        1.0
      ],
      "min": [
        -1.0,
        -1.0,
        -1.0
      ],
      "type": "VEC3"
    },
    {
      "bufferView": 1,
      "byteOffset": 17000,
      "componentType": 5126,
      "count": 8483,
      "max": [
        0.9928359985351563,
        0.991362988948822
      ],
      "min": [
        0.007164000067859888,
        0.007164000067859888
      ],
      "type": "VEC2"
    },
    {
      "bufferView": 0,
      "byteOffset": 11916,
      "componentType": 5125,
      "count": 16644,
      "type": "SCALAR"
    },
    {
      "bufferView": 2,
      "byteOffset": 254592,
      "componentType": 5126,
      "count": 9560,
      "max": [
        4.488015174865723,
        0.7699980139732361,
        0.42889899015426636
      ],
      "min": [
        -4.135216236114502,
        -1.9275959730148315,
        -1.0029239654541016
      ],
      "type": "VEC3"
    },
    {
      "bufferView": 2,
      "byteOffset": 369312,
      "componentType": 5126,
      "count": 9560,
      "max": [
        1.0,
        1.0,
        1.0
      ],
      "min": [
        -1.0,
        -1.0,
        -1.0
      ],
      "type": "VEC3"
    },
    {
      "bufferView": 1,
      "byteOffset": 84864,
      "componentType": 5126,
      "count": 9560,
      "max": [
        0.990227997303009,
        0.9898509979248047
      ],
      "min": [
        0.009037000127136707,
        0.009037000127136707
      ],
      "type": "VEC2"
    },
    {
      "bufferView": 0,
      "byteOffset": 78492,
      "componentType": 5125,
      "count": 12510,
      "type": "SCALAR"
    },
    {
      "bufferView": 2,
      "byteOffset": 484032,
      "componentType": 5126,
      "count": 9992,
      "max": [
        4.601002216339111,
        1.3396129608154297,
        0.19442099332809448
      ],
      "min": [
        -4.055642127990723,
        -1.9004809856414795,
        -0.9242129921913147
      ],
      "type": "VEC3"
    },
    {
      "bufferView": 2,
      "byteOffset": 603936,
      "componentType": 5126,
      "count": 9992,
      "max": [
        1.0,
        1.0,
        1.0
      ],
      "min": [
        -1.0,
        -1.0,
        -1.0
      ],
      "type": "VEC3"
    },
    {
      "bufferView": 1,
      "byteOffset": 161344,
      "componentType": 5126,
      "count": 9992,
      "max": [
        0.9909629821777344,
        0.9898750185966492
      ],
      "min": [
        0.010352999903261662,
        0.009037000127136707
      ],
      "type": "VEC2"
    },
    {
      "bufferView": 0,
      "byteOffset": 128532,
      "componentType": 5125,
      "count": 15972,
      "type": "SCALAR"
    },
    {
      "bufferView": 2,
      "byteOffset": 723840,
      "componentType": 5126,
      "count": 4456,
      "max": [
        4.601003170013428,
        0.7809209823608398,
        0.432015985250473
      ],
      "min": [
        -4.130352020263672,
        -1.9045779705047607,
        -1.0002830028533936
      ],
      "type": "VEC3"
    },
    {
      "bufferView": 2,
      "byteOffset": 777312,
      "componentType": 5126,
      "count": 4456,
      "max": [
        1.0,
        1.0,
        1.0
      ],
      "min": [
        -1.0,
        -1.0,
        -1.0
      ],
      "type": "VEC3"
    },
    {
      "bufferView": 1,
      "byteOffset": 241280,
      "componentType": 5126,
      "count": 4456,
      "max": [
        0.8993970155715942,
        0.965149998664856
      ],
      "min": [
        0.009037000127136707,
        0.009037000127136707
      ],
      "type": "VEC2"
    },
    {
      "bufferView": 0,
      "byteOffset": 192420,
      "componentType": 5125,
      "count": 7542,
      "type": "SCALAR"
    },
    {
      "bufferView": 2,
      "byteOffset": 830784,
      "componentType": 5126,
      "count": 248,
      "max": [
        3.3310000896453857,
        1.927590012550354,
        0.8018440008163452
      ],
      "min": [
        -3.3309988975524902,
        -1.927590012550354,
        -1.0
      ],
      "type": "VEC3"
    },
    {
      "bufferView": 2,
      "byteOffset": 833760,
      "componentType": 5126,
      "count": 248,
      "max": [
        0.9738729596138,
        1.0,
        1.0
      ],
      "min": [
        -0.9738729596138,
        -1.0,
        -1.0
      ],
      "type": "VEC3"
    },
    {
      "bufferView": 1,
      "byteOffset": 276928,
      "componentType": 5126,
      "count": 248,
      "max": [
        0.916450023651123,
        0.995652973651886
      ],
      "min": [
        0.004346999805420637,
        0.004346999805420637
      ],
      "type": "VEC2"
    },
    {
      "bufferView": 0,
      "byteOffset": 222588,
      "componentType": 5125,
      "count": 690,
      "type": "SCALAR"
    }
  ],
  "asset": {
    "extras": {
      "author": "Shannen Art (https://sketchfab.com/shannen_art)",
      "license": "CC-BY-4.0 (http://creativecommons.org/licenses/by/4.0/)",
      "source": "https://sketchfab.com/3d-models/the-outpost-house-55d1fb80b83f4bef8da79ac9bdb4eb32",
      "title": "The Outpost house"
    },
    "generator": "Sketchfab-12.65.0",
    "version": "2.0"
  },
  "bufferViews": [
    {
      "buffer": 0,
      "byteLength": 225348,
      "name": "floatBufferViews",
      "target": 34963
    },
    {
      "buffer": 0,
      "byteLength": 278912,
      "byteOffset": 225348,
      "byteStride": 8,
      "name": "floatBufferViews",
      "target": 34962
    },
    {
      "buffer": 0,
      "byteLength": 836736,
      "byteOffset": 504260,
      "byteStride": 12,
      "name": "floatBufferViews",
      "target": 34962
    }
  ],
  "buffers": [
    {
      "byteLength": 1340996,
      "uri": "scene.bin"
    }
  ],
  "extensionsUsed": [
    "KHR_materials_unlit"
  ],
  "images": [
    {
      "uri": "textures/Constructions_baseColor.png"
    },
    {
      "uri": "textures/Fires_baseColor.png"
    },
    {
      "uri": "textures/Furniture_baseColor.png"
    },
    {
      "uri": "textures/Items_baseColor.png"
    },
    {
      "uri": "textures/material_baseColor.png"
    },
    {
      "uri": "textures/Walls_baseColor.png"
    }
  ],
  "materials": [
    {
      "doubleSided": true,
      "extensions": {
        "KHR_materials_unlit": {}
      },
      "name": "Black_metal",
      "pbrMetallicRoughness": {
        "baseColorFactor": [
          0.009721,
          0.006995,
          0.006049,
          1.0
        ],
        "metallicFactor": 0.0
      }
    },
    {
      "extensions": {
        "KHR_materials_unlit": {}
      },
      "name": "Constructions",
      "pbrMetallicRoughness": {
        "baseColorTexture": {
          "index": 0
        },
        "metallicFactor": 0.0
      }
    },
    {
      "doubleSided": true,
      "extensions": {
        "KHR_materials_unlit": {}
      },
      "name": "Fires",
      "pbrMetallicRoughness": {
        "baseColorTexture": {
          "index": 1
        },
        "metallicFactor": 0.0
      }
    },
    {
      "doubleSided": true,
      "extensions": {
        "KHR_materials_unlit": {}
      },
      "name": "Furniture",
      "pbrMetallicRoughness": {
        "baseColorTexture": {
          "index": 2
        },
        "metallicFactor": 0.0
      }
    },
    {
      "alphaMode": "BLEND",
      "doubleSided": true,
      "extensions": {
        "KHR_materials_unlit": {}
      },
      "name": "Items",
      "pbrMetallicRoughness": {
        "baseColorTexture": {
          "index": 3
        },
        "metallicFactor": 0.0
      }
    },
    {
      "extensions": {
        "KHR_materials_unlit": {}
      },
      "name": "material",
      "pbrMetallicRoughness": {
        "baseColorTexture": {
          "index": 4
        },
        "metallicFactor": 0.0
      }
    },
    {
      "extensions": {
        "KHR_materials_unlit": {}
      },
      "name": "Walls",
      "pbrMetallicRoughness": {
        "baseColorTexture": {
          "index": 5
        },
        "metallicFactor": 0.0
      }
    }
  ],
  "meshes": [
    {
      "name": "Object_0",
      "primitives": [
        {
          "attributes": {
            "NORMAL": 1,
            "POSITION": 0,
            "TEXCOORD_0": 2
          },
          "indices": 3,
          "material": 6,
          "mode": 4
        }
      ]
    },
    {
      "name": "Object_1",
      "primitives": [
        {
          "attributes": {
            "NORMAL": 5,
            "POSITION": 4,
            "TEXCOORD_0": 6
          },
          "indices": 7,
          "material": 0,
          "mode": 4
        }
      ]
    },
    {
      "name": "Object_2",
      "primitives": [
        {
          "attributes": {
            "NORMAL": 9,
            "POSITION": 8,
            "TEXCOORD_0": 10
          },
          "indices": 11,
          "material": 1,
          "mode": 4
        }
      ]
    },
    {
      "name": "Object_3",
      "primitives": [
        {
          "attributes": {
            "NORMAL": 13,
            "POSITION": 12,
            "TEXCOORD_0": 14
          },
          "indices": 15,
          "material": 2,
          "mode": 4
        }
      ]
    },
    {
      "name": "Object_4",
      "primitives": [
        {
          "attributes": {
            "NORMAL": 17,
            "POSITION": 16,
            "TEXCOORD_0": 18
          },
          "indices": 19,
          "material": 3,
          "mode": 4
        }
      ]
    },
    {
      "name": "Object_5",
      "primitives": [
        {
          "attributes": {
            "NORMAL": 21,
            "POSITION": 20,
            "TEXCOORD_0": 22
          },
          "indices": 23,
          "material": 4,
          "mode": 4
        }
      ]
    },
    {
      "name": "Object_6",
      "primitives": [
        {
          "attributes": {
            "NORMAL": 25,
            "POSITION": 24,
            "TEXCOORD_0": 26
          },
          "indices": 27,
          "material": 4,
          "mode": 4
        }
      ]
    },
    {
      "name": "Object_7",
      "primitives": [
        {
          "attributes": {
            "NORMAL": 29,
            "POSITION": 28,
            "TEXCOORD_0": 30
          },
          "indices": 31,
          "material": 4,
          "mode": 4
        }
      ]
    },
    {
      "name": "Object_8",
      "primitives": [
        {
          "attributes": {
            "NORMAL": 33,
            "POSITION": 32,
            "TEXCOORD_0": 34
          },
          "indices": 35,
          "material": 5,
          "mode": 4
        }
      ]
    }
  ],
  "nodes": [
    {
      "children": [
        1
      ],
      "matrix": [
        1.0,
        0.0,
        0.0,
        0.0,
        0.0,
        2.220446049250313e-16,
        -1.0,
        0.0,
        0.0,
        1.0,
        2.220446049250313e-16,
        0.0,
        0.0,
        0.0,
        0.0,
        1.0
      ],
      "name": "Sketchfab_model"
    },
    {
      "children": [
        2,
        3,
        4,
        5,
        6,
        7,
        8,
        9,
        10
      ],
      "name": "outpost.obj.cleaner.materialmerger.gles"
    },
    {
      "mesh": 0,
      "name": "Object_2"
    },
    {
      "mesh": 1,
      "name": "Object_3"
    },
    {
      "mesh": 2,
      "name": "Object_4"
    },
    {
      "mesh": 3,
      "name": "Object_5"
    },
    {
      "mesh": 4,
      "name": "Object_6"
    },
    {
      "mesh": 5,
      "name": "Object_7"
    },
    {
      "mesh": 6,
      "name": "Object_8"
    },
    {
      "mesh": 7,
      "name": "Object_9"
    },
    {
      "mesh": 8,
      "name": "Object_10"
    }
  ],
  "samplers": [
    {
      "magFilter": 9729,
      "minFilter": 9987,
      "wrapS": 10497,
      "wrapT": 10497
    }
  ],
  "scene": 0,
  "scenes": [
    {
      "name": "Sketchfab_Scene",
      "nodes": [
        0
      ]
    }
  ],
  "textures": [
    {
      "sampler": 0,
      "source": 0
    },
    {
      "sampler": 0,
      "source": 1
    },
    {
      "sampler": 0,
      "source": 2
    },
    {
      "sampler": 0,
      "source": 3
    },
    {
      "sampler": 0,
      "source": 4
    },
    {
      "sampler": 0,
      "source": 5
    }
  ]
}
