{
	"asset":{
		"generator":"Khronos glTF Blender I/O v4.1.63",
		"version":"2.0"
	},
	"scene":0,
	"scenes":[
		{
			"name":"Scene",
			"nodes":[
				0
			]
		}
	],
	"nodes":[
		{
			"mesh":0,
			"name":"Material2.058",
			"rotation":[
				-0.70710688829422,
				0,
				0,
				0.7071066498756409
			],
			"scale":[
				1.120216965675354,
				1.0002167224884033,
				1.0002167224884033
			],
			"translation":[
				-158.45065307617188,
				-0.04867573454976082,
				-11.131357192993164
			]
		}
	],
	"materials":[
		{
			"name":"Wood03-basecolor.001",
			"normalTexture":{
				"index":0
			},
			"pbrMetallicRoughness":{
				"baseColorTexture":{
					"index":1
				},
				"metallicFactor":0,
				"metallicRoughnessTexture":{
					"index":2
				}
			}
		}
	],
	"meshes":[
		{
			"name":"Material2.002",
			"primitives":[
				{
					"attributes":{
						"POSITION":0,
						"NORMAL":1,
						"TEXCOORD_0":2
					},
					"indices":3,
					"material":0
				}
			]
		}
	],
	"textures":[
		{
			"sampler":0,
			"source":0
		},
		{
			"sampler":0,
			"source":1
		},
		{
			"sampler":0,
			"source":2
		}
	],
	"images":[
		{
			"mimeType":"image/png",
			"name":"Wood03-basecolor_normal",
			"uri":"Textures/Wood03-basecolor_normal.png"
		},
		{
			"mimeType":"image/jpeg",
			"name":"Wood03-basecolor_baseColor",
			"uri":"Textures/Wood03-basecolor_baseColor.jpg"
		},
		{
			"mimeType":"image/png",
			"name":"Wood03-basecolor_metallicRoughness",
			"uri":"Textures/Wood03-basecolor_metallicRoughness.png"
		}
	],
	"accessors":[
		{
			"bufferView":0,
			"componentType":5126,
			"count":22071,
			"max":[
				191.8905029296875,
				1.618468999862671,
				74.0384521484375
			],
			"min":[
				53.0164909362793,
				-119.6011962890625,
				0
			],
			"type":"VEC3"
		},
		{
			"bufferView":1,
			"componentType":5126,
			"count":22071,
			"type":"VEC3"
		},
		{
			"bufferView":2,
			"componentType":5126,
			"count":22071,
			"type":"VEC2"
		},
		{
			"bufferView":3,
			"componentType":5123,
			"count":52914,
			"type":"SCALAR"
		}
	],
	"bufferViews":[
		{
			"buffer":0,
			"byteLength":264852,
			"byteOffset":0,
			"target":34962
		},
		{
			"buffer":0,
			"byteLength":264852,
			"byteOffset":264852,
			"target":34962
		},
		{
			"buffer":0,
			"byteLength":176568,
			"byteOffset":529704,
			"target":34962
		},
		{
			"buffer":0,
			"byteLength":105828,
			"byteOffset":706272,
			"target":34963
		}
	],
	"samplers":[
		{
			"magFilter":9729,
			"minFilter":9987
		}
	],
	"buffers":[
		{
			"byteLength":812100,
			"uri":"ROOM-BED.bin"
		}
	]
}
