{
	"asset":{
		"generator":"Khronos glTF Blender I/O v4.1.63",
		"version":"2.0"
	},
	"scene":0,
	"scenes":[
		{
			"name":"Scene",
			"nodes":[
				2
			]
		}
	],
	"nodes":[
		{
			"mesh":0,
			"name":"Material-material"
		},
		{
			"mesh":1,
			"name":"Test-material"
		},
		{
			"children":[
				0,
				1
			],
			"name":"Export",
			"rotation":[
				-0.49487969279289246,
				0.5064170956611633,
				0.5037695169448853,
				0.4948253631591797
			],
			"scale":[
				2.0473504066467285,
				2.334627866744995,
				1.6378620862960815
			],
			"translation":[
				-2.8105170726776123,
				-2.9687976837158203,
				18.541927337646484
			]
		}
	],
	"materials":[
		{
			"doubleSided":true,
			"name":"Material.009",
			"normalTexture":{
				"index":0
			},
			"pbrMetallicRoughness":{
				"baseColorTexture":{
					"index":1
				},
				"metallicRoughnessTexture":{
					"index":2
				}
			}
		},
		{
			"doubleSided":true,
			"name":"Test",
			"normalTexture":{
				"index":3
			},
			"pbrMetallicRoughness":{
				"baseColorTexture":{
					"index":4
				},
				"metallicRoughnessTexture":{
					"index":5
				}
			}
		}
	],
	"meshes":[
		{
			"name":"Material-material",
			"primitives":[
				{
					"attributes":{
						"POSITION":0,
						"NORMAL":1,
						"TEXCOORD_0":2
					},
					"indices":3,
					"material":0
				}
			]
		},
		{
			"name":"Test-material",
			"primitives":[
				{
					"attributes":{
						"POSITION":4,
						"NORMAL":5,
						"TEXCOORD_0":6
					},
					"indices":7,
					"material":1
				}
			]
		}
	],
	"textures":[
		{
			"sampler":0,
			"source":0
		},
		{
			"sampler":0,
			"source":1
		},
		{
			"sampler":0,
			"source":2
		},
		{
			"sampler":0,
			"source":3
		},
		{
			"sampler":0,
			"source":4
		},
		{
			"sampler":0,
			"source":5
		}
	],
	"images":[
		{
			"mimeType":"image/png",
			"name":"Material_normal",
			"uri":"textures/Material_normal.png"
		},
		{
			"mimeType":"image/png",
			"name":"Material_baseColor",
			"uri":"textures/Material_baseColor.png"
		},
		{
			"mimeType":"image/png",
			"name":"Material_metallicRoughness",
			"uri":"textures/Material_metallicRoughness.png"
		},
		{
			"mimeType":"image/png",
			"name":"Test_normal",
			"uri":"textures/Test_normal.png"
		},
		{
			"mimeType":"image/png",
			"name":"Test_baseColor",
			"uri":"textures/Test_baseColor.png"
		},
		{
			"mimeType":"image/png",
			"name":"Test_metallicRoughness",
			"uri":"textures/Test_metallicRoughness.png"
		}
	],
	"accessors":[
		{
			"bufferView":0,
			"componentType":5126,
			"count":3636,
			"max":[
				6.339087009429932,
				6.711316108703613,
				5.0504679679870605
			],
			"min":[
				-5.786538124084473,
				-11.53180980682373,
				-1.416208028793335
			],
			"type":"VEC3"
		},
		{
			"bufferView":1,
			"componentType":5126,
			"count":3636,
			"type":"VEC3"
		},
		{
			"bufferView":2,
			"componentType":5126,
			"count":3636,
			"type":"VEC2"
		},
		{
			"bufferView":3,
			"componentType":5123,
			"count":12060,
			"type":"SCALAR"
		},
		{
			"bufferView":4,
			"componentType":5126,
			"count":2812,
			"max":[
				6.125925064086914,
				1.0246670246124268,
				3.2644879817962646
			],
			"min":[
				-8.332112312316895,
				-6.867224216461182,
				-1.3984270095825195
			],
			"type":"VEC3"
		},
		{
			"bufferView":5,
			"componentType":5126,
			"count":2812,
			"type":"VEC3"
		},
		{
			"bufferView":6,
			"componentType":5126,
			"count":2812,
			"type":"VEC2"
		},
		{
			"bufferView":7,
			"componentType":5123,
			"count":9900,
			"type":"SCALAR"
		}
	],
	"bufferViews":[
		{
			"buffer":0,
			"byteLength":43632,
			"byteOffset":0,
			"target":34962
		},
		{
			"buffer":0,
			"byteLength":43632,
			"byteOffset":43632,
			"target":34962
		},
		{
			"buffer":0,
			"byteLength":29088,
			"byteOffset":87264,
			"target":34962
		},
		{
			"buffer":0,
			"byteLength":24120,
			"byteOffset":116352,
			"target":34963
		},
		{
			"buffer":0,
			"byteLength":33744,
			"byteOffset":140472,
			"target":34962
		},
		{
			"buffer":0,
			"byteLength":33744,
			"byteOffset":174216,
			"target":34962
		},
		{
			"buffer":0,
			"byteLength":22496,
			"byteOffset":207960,
			"target":34962
		},
		{
			"buffer":0,
			"byteLength":19800,
			"byteOffset":230456,
			"target":34963
		}
	],
	"samplers":[
		{
			"magFilter":9729,
			"minFilter":9987
		}
	],
	"buffers":[
		{
			"byteLength":250256,
			"uri":"coraline-copia.bin"
		}
	]
}
