{
	"asset":{
		"generator":"Khronos glTF Blender I/O v4.1.63",
		"version":"2.0"
	},
	"scene":0,
	"scenes":[
		{
			"name":"Scene",
			"nodes":[
				0
			]
		}
	],
	"nodes":[
		{
			"mesh":0,
			"name":"Door_Default_0",
			"rotation":[
				0,
				0.7169990539550781,
				0,
				0.6970741748809814
			],
			"scale":[
				0.36297407746315,
				0.21621954441070557,
				0.2119779735803604
			],
			"translation":[
				0,
				1.3447375297546387,
				0
			]
		}
	],
	"materials":[
		{
			"doubleSided":true,
			"name":"Default.001",
			"normalTexture":{
				"index":0,
				"scale":0.6097561120986938
			},
			"occlusionTexture":{
				"index":1
			},
			"pbrMetallicRoughness":{
				"baseColorTexture":{
					"index":2
				},
				"metallicRoughnessTexture":{
					"index":1
				},
				"roughnessFactor":0.3048780560493469
			}
		}
	],
	"meshes":[
		{
			"name":"Door_Default_0.001",
			"primitives":[
				{
					"attributes":{
						"POSITION":0,
						"NORMAL":1,
						"TEXCOORD_0":2
					},
					"indices":3,
					"material":0
				}
			]
		}
	],
	"textures":[
		{
			"sampler":0,
			"source":0
		},
		{
			"sampler":0,
			"source":1
		},
		{
			"sampler":0,
			"source":2
		}
	],
	"images":[
		{
			"mimeType":"image/png",
			"name":"Default_normal",
			"uri":"textures/Default_normal.png"
		},
		{
			"mimeType":"image/png",
			"name":"Default_metallicRoughness",
			"uri":"textures/Default_metallicRoughness.png"
		},
		{
			"mimeType":"image/png",
			"name":"Default_baseColor",
			"uri":"textures/Default_baseColor.png"
		}
	],
	"accessors":[
		{
			"bufferView":0,
			"componentType":5126,
			"count":1621,
			"max":[
				3.0299999713897705,
				103.30000305175781,
				48.70743179321289
			],
			"min":[
				-10.979999542236328,
				-103.30000305175781,
				-48.70743179321289
			],
			"type":"VEC3"
		},
		{
			"bufferView":1,
			"componentType":5126,
			"count":1621,
			"type":"VEC3"
		},
		{
			"bufferView":2,
			"componentType":5126,
			"count":1621,
			"type":"VEC2"
		},
		{
			"bufferView":3,
			"componentType":5123,
			"count":4731,
			"type":"SCALAR"
		}
	],
	"bufferViews":[
		{
			"buffer":0,
			"byteLength":19452,
			"byteOffset":0,
			"target":34962
		},
		{
			"buffer":0,
			"byteLength":19452,
			"byteOffset":19452,
			"target":34962
		},
		{
			"buffer":0,
			"byteLength":12968,
			"byteOffset":38904,
			"target":34962
		},
		{
			"buffer":0,
			"byteLength":9462,
			"byteOffset":51872,
			"target":34963
		}
	],
	"samplers":[
		{
			"magFilter":9729,
			"minFilter":9987
		}
	],
	"buffers":[
		{
			"byteLength":61336,
			"uri":"door.bin"
		}
	]
}
