{
	"asset":{
		"generator":"Khronos glTF Blender I/O v4.1.63",
		"version":"2.0"
	},
	"scene":0,
	"scenes":[
		{
			"name":"Scene",
			"nodes":[
				4
			]
		}
	],
	"nodes":[
		{
			"mesh":0,
			"name":"Material-material",
			"scale":[
				1.3347077369689941,
				1.0001060962677002,
				1.2420883178710938
			]
		},
		{
			"mesh":1,
			"name":"Test-material",
			"scale":[
				1,
				1,
				1.2290866374969482
			]
		},
		{
			"children":[
				0,
				1
			],
			"name":"Export",
			"rotation":[
				0,
				0,
				0.7142484784126282,
				0.6998922228813171
			],
			"scale":[
				0.35572105646133423,
				0.35572102665901184,
				0.35572099685668945
			],
			"translation":[
				-0.02979394979774952,
				0.006709146313369274,
				3.701613664627075
			]
		},
		{
			"children":[
				2
			],
			"name":"Collada visual scene group.002"
		},
		{
			"children":[
				3
			],
			"name":"Sketchfab_model.009",
			"rotation":[
				-0.70710688829422,
				0,
				0,
				0.7071066498756409
			],
			"scale":[
				6.563398838043213,
				5.632771015167236,
				10.701199531555176
			],
			"translation":[
				0,
				-54.26713943481445,
				0
			]
		}
	],
	"materials":[
		{
			"doubleSided":true,
			"name":"Material.004",
			"normalTexture":{
				"index":0
			},
			"pbrMetallicRoughness":{
				"baseColorTexture":{
					"index":1
				},
				"metallicRoughnessTexture":{
					"index":2
				}
			}
		},
		{
			"doubleSided":true,
			"name":"Test.001",
			"normalTexture":{
				"index":3
			},
			"pbrMetallicRoughness":{
				"baseColorTexture":{
					"index":4
				},
				"metallicRoughnessTexture":{
					"index":5
				}
			}
		}
	],
	"meshes":[
		{
			"name":"Material-material.001",
			"primitives":[
				{
					"attributes":{
						"POSITION":0,
						"NORMAL":1,
						"TEXCOORD_0":2
					},
					"indices":3,
					"material":0
				}
			]
		},
		{
			"name":"Test-material.001",
			"primitives":[
				{
					"attributes":{
						"POSITION":4,
						"NORMAL":5,
						"TEXCOORD_0":6
					},
					"indices":7,
					"material":1
				}
			]
		}
	],
	"textures":[
		{
			"sampler":0,
			"source":0
		},
		{
			"sampler":0,
			"source":1
		},
		{
			"sampler":0,
			"source":2
		},
		{
			"sampler":0,
			"source":3
		},
		{
			"sampler":0,
			"source":4
		},
		{
			"sampler":0,
			"source":5
		}
	],
	"images":[
		{
			"mimeType":"image/png",
			"name":"Material_normal",
			"uri":"textures/Material_normal.png"
		},
		{
			"mimeType":"image/png",
			"name":"Material_baseColor",
			"uri":"textures/Material_baseColor.png"
		},
		{
			"mimeType":"image/png",
			"name":"Material_metallicRoughness",
			"uri":"textures/Material_metallicRoughness.png"
		},
		{
			"mimeType":"image/png",
			"name":"Test_normal",
			"uri":"textures/Test_normal.png"
		},
		{
			"mimeType":"image/png",
			"name":"Test_baseColor",
			"uri":"textures/Test_baseColor.png"
		},
		{
			"mimeType":"image/png",
			"name":"Test_metallicRoughness",
			"uri":"textures/Test_metallicRoughness.png"
		}
	],
	"accessors":[
		{
			"bufferView":0,
			"componentType":5126,
			"count":3641,
			"max":[
				6.339087009429932,
				6.711316108703613,
				5.0504679679870605
			],
			"min":[
				-5.786538124084473,
				-11.53180980682373,
				-1.416208028793335
			],
			"type":"VEC3"
		},
		{
			"bufferView":1,
			"componentType":5126,
			"count":3641,
			"type":"VEC3"
		},
		{
			"bufferView":2,
			"componentType":5126,
			"count":3641,
			"type":"VEC2"
		},
		{
			"bufferView":3,
			"componentType":5123,
			"count":12060,
			"type":"SCALAR"
		},
		{
			"bufferView":4,
			"componentType":5126,
			"count":2812,
			"max":[
				6.125925064086914,
				1.0246670246124268,
				3.2644879817962646
			],
			"min":[
				-8.332112312316895,
				-6.867224216461182,
				-1.3984270095825195
			],
			"type":"VEC3"
		},
		{
			"bufferView":5,
			"componentType":5126,
			"count":2812,
			"type":"VEC3"
		},
		{
			"bufferView":6,
			"componentType":5126,
			"count":2812,
			"type":"VEC2"
		},
		{
			"bufferView":7,
			"componentType":5123,
			"count":9900,
			"type":"SCALAR"
		}
	],
	"bufferViews":[
		{
			"buffer":0,
			"byteLength":43692,
			"byteOffset":0,
			"target":34962
		},
		{
			"buffer":0,
			"byteLength":43692,
			"byteOffset":43692,
			"target":34962
		},
		{
			"buffer":0,
			"byteLength":29128,
			"byteOffset":87384,
			"target":34962
		},
		{
			"buffer":0,
			"byteLength":24120,
			"byteOffset":116512,
			"target":34963
		},
		{
			"buffer":0,
			"byteLength":33744,
			"byteOffset":140632,
			"target":34962
		},
		{
			"buffer":0,
			"byteLength":33744,
			"byteOffset":174376,
			"target":34962
		},
		{
			"buffer":0,
			"byteLength":22496,
			"byteOffset":208120,
			"target":34962
		},
		{
			"buffer":0,
			"byteLength":19800,
			"byteOffset":230616,
			"target":34963
		}
	],
	"samplers":[
		{
			"magFilter":9729,
			"minFilter":9987
		}
	],
	"buffers":[
		{
			"byteLength":250416,
			"uri":"table.bin"
		}
	]
}
