{
	"asset":{
		"generator":"Khronos glTF Blender I/O v4.1.63",
		"version":"2.0"
	},
	"scene":0,
	"scenes":[
		{
			"name":"Scene",
			"nodes":[
				4
			]
		}
	],
	"nodes":[
		{
			"mesh":0,
			"name":"Door_Default_0",
			"translation":[
				1.868605613708496e-05,
				0,
				-3.072619438171387e-05
			]
		},
		{
			"children":[
				0
			],
			"name":"Door",
			"translation":[
				1.868605613708496e-05,
				0,
				-3.072619438171387e-05
			]
		},
		{
			"children":[
				1
			],
			"name":"RootNode.002",
			"translation":[
				1.868605613708496e-05,
				0,
				-3.072619438171387e-05
			]
		},
		{
			"children":[
				2
			],
			"name":"ce5f462b0dd34333a6588509140a7fb8.fbx",
			"rotation":[
				0.70710688829422,
				0,
				0,
				0.7071066498756409
			],
			"translation":[
				1.862645149230957e-05,
				7.450580596923828e-06,
				0
			]
		},
		{
			"children":[
				3
			],
			"name":"Sketchfab_model.003",
			"rotation":[
				-0.47600075602531433,
				0.5282235741615295,
				0.518051028251648,
				0.47542235255241394
			],
			"scale":[
				0.13801175355911255,
				0.15845754742622375,
				0.10123147070407867
			],
			"translation":[
				-37.417823791503906,
				4.636289596557617,
				-31.185211181640625
			]
		}
	],
	"materials":[
		{
			"doubleSided":true,
			"name":"Default",
			"normalTexture":{
				"index":0,
				"scale":0.6097561120986938
			},
			"occlusionTexture":{
				"index":1
			},
			"pbrMetallicRoughness":{
				"baseColorTexture":{
					"index":2
				},
				"metallicRoughnessTexture":{
					"index":1
				},
				"roughnessFactor":0.3048780560493469
			}
		}
	],
	"meshes":[
		{
			"name":"Door_Default_0",
			"primitives":[
				{
					"attributes":{
						"POSITION":0,
						"NORMAL":1,
						"TEXCOORD_0":2
					},
					"indices":3,
					"material":0
				}
			]
		}
	],
	"textures":[
		{
			"sampler":0,
			"source":0
		},
		{
			"sampler":0,
			"source":1
		},
		{
			"sampler":0,
			"source":2
		}
	],
	"images":[
		{
			"mimeType":"image/png",
			"name":"Default_normal",
			"uri":"textures/Default_normal.png"
		},
		{
			"mimeType":"image/png",
			"name":"Default_metallicRoughness",
			"uri":"textures/Default_metallicRoughness.png"
		},
		{
			"mimeType":"image/png",
			"name":"Default_baseColor",
			"uri":"textures/Default_baseColor.png"
		}
	],
	"accessors":[
		{
			"bufferView":0,
			"componentType":5126,
			"count":1579,
			"max":[
				3.0299999713897705,
				103.30000305175781,
				48.70743179321289
			],
			"min":[
				-10.979999542236328,
				-103.30000305175781,
				-48.70743179321289
			],
			"type":"VEC3"
		},
		{
			"bufferView":1,
			"componentType":5126,
			"count":1579,
			"type":"VEC3"
		},
		{
			"bufferView":2,
			"componentType":5126,
			"count":1579,
			"type":"VEC2"
		},
		{
			"bufferView":3,
			"componentType":5123,
			"count":4731,
			"type":"SCALAR"
		}
	],
	"bufferViews":[
		{
			"buffer":0,
			"byteLength":18948,
			"byteOffset":0,
			"target":34962
		},
		{
			"buffer":0,
			"byteLength":18948,
			"byteOffset":18948,
			"target":34962
		},
		{
			"buffer":0,
			"byteLength":12632,
			"byteOffset":37896,
			"target":34962
		},
		{
			"buffer":0,
			"byteLength":9462,
			"byteOffset":50528,
			"target":34963
		}
	],
	"samplers":[
		{
			"magFilter":9729,
			"minFilter":9987
		}
	],
	"buffers":[
		{
			"byteLength":59992,
			"uri":"coraline-copia.bin"
		}
	]
}
