{
	"asset":{
		"generator":"Khronos glTF Blender I/O v4.1.63",
		"version":"2.0"
	},
	"scene":0,
	"scenes":[
		{
			"name":"Scene",
			"nodes":[
				4
			]
		}
	],
	"nodes":[
		{
			"mesh":0,
			"name":"Door_Default_0",
			"translation":[
				0,
				-5.0514936447143555e-06,
				-2.7436763048171997e-06
			]
		},
		{
			"children":[
				0
			],
			"name":"Door",
			"translation":[
				0,
				-5.0514936447143555e-06,
				-2.7436763048171997e-06
			]
		},
		{
			"children":[
				1
			],
			"name":"RootNode.002",
			"translation":[
				0,
				-5.0514936447143555e-06,
				-2.7436763048171997e-06
			]
		},
		{
			"children":[
				2
			],
			"name":"ce5f462b0dd34333a6588509140a7fb8.fbx",
			"rotation":[
				0.70710688829422,
				0,
				0,
				0.7071066498756409
			],
			"translation":[
				0,
				2.635642886161804e-06,
				0
			]
		},
		{
			"children":[
				3
			],
			"name":"Sketchfab_model.003",
			"rotation":[
				-0.5007961392402649,
				0.5043109655380249,
				0.4941222667694092,
				0.500716507434845
			],
			"scale":[
				0.13801172375679016,
				0.15845753252506256,
				0.10123145580291748
			],
			"translation":[
				-4.129701614379883,
				4.390157699584961,
				-1.2510520219802856
			]
		}
	],
	"materials":[
		{
			"doubleSided":true,
			"name":"Default",
			"normalTexture":{
				"index":0,
				"scale":0.6097561120986938
			},
			"occlusionTexture":{
				"index":1
			},
			"pbrMetallicRoughness":{
				"baseColorTexture":{
					"index":2
				},
				"metallicRoughnessTexture":{
					"index":1
				},
				"roughnessFactor":0.3048780560493469
			}
		}
	],
	"meshes":[
		{
			"name":"Door_Default_0",
			"primitives":[
				{
					"attributes":{
						"POSITION":0,
						"NORMAL":1,
						"TEXCOORD_0":2
					},
					"indices":3,
					"material":0
				}
			]
		}
	],
	"textures":[
		{
			"sampler":0,
			"source":0
		},
		{
			"sampler":0,
			"source":1
		},
		{
			"sampler":0,
			"source":2
		}
	],
	"images":[
		{
			"mimeType":"image/png",
			"name":"Default_normal",
			"uri":"textures/Default_normal.png"
		},
		{
			"mimeType":"image/png",
			"name":"Default_metallicRoughness",
			"uri":"textures/Default_metallicRoughness.png"
		},
		{
			"mimeType":"image/png",
			"name":"Default_baseColor",
			"uri":"textures/Default_baseColor.png"
		}
	],
	"accessors":[
		{
			"bufferView":0,
			"componentType":5126,
			"count":1579,
			"max":[
				3.0299999713897705,
				103.30000305175781,
				48.70743179321289
			],
			"min":[
				-10.979999542236328,
				-103.30000305175781,
				-48.70743179321289
			],
			"type":"VEC3"
		},
		{
			"bufferView":1,
			"componentType":5126,
			"count":1579,
			"type":"VEC3"
		},
		{
			"bufferView":2,
			"componentType":5126,
			"count":1579,
			"type":"VEC2"
		},
		{
			"bufferView":3,
			"componentType":5123,
			"count":4731,
			"type":"SCALAR"
		}
	],
	"bufferViews":[
		{
			"buffer":0,
			"byteLength":18948,
			"byteOffset":0,
			"target":34962
		},
		{
			"buffer":0,
			"byteLength":18948,
			"byteOffset":18948,
			"target":34962
		},
		{
			"buffer":0,
			"byteLength":12632,
			"byteOffset":37896,
			"target":34962
		},
		{
			"buffer":0,
			"byteLength":9462,
			"byteOffset":50528,
			"target":34963
		}
	],
	"samplers":[
		{
			"magFilter":9729,
			"minFilter":9987
		}
	],
	"buffers":[
		{
			"byteLength":59992,
			"uri":"coraline-copia.bin"
		}
	]
}
