{
	"asset":{
		"generator":"Khronos glTF Blender I/O v4.1.63",
		"version":"2.0"
	},
	"scene":0,
	"scenes":[
		{
			"name":"Scene",
			"nodes":[
				3
			]
		}
	],
	"nodes":[
		{
			"mesh":0,
			"name":"defaultMaterial"
		},
		{
			"children":[
				0
			],
			"name":"sweep2"
		},
		{
			"children":[
				1
			],
			"name":"Collada visual scene group.001",
			"rotation":[
				0.70710688829422,
				0,
				0,
				0.7071066498756409
			]
		},
		{
			"children":[
				2
			],
			"name":"Sketchfab_model.003",
			"rotation":[
				-0.70710688829422,
				0,
				0,
				0.7071066498756409
			],
			"scale":[
				4.388134479522705,
				7.817930698394775,
				7.511660575866699
			],
			"translation":[
				0,
				-5.456551551818848,
				0
			]
		}
	],
	"materials":[
		{
			"doubleSided":true,
			"name":"lambert1",
			"normalTexture":{
				"index":0
			},
			"occlusionTexture":{
				"index":1
			},
			"pbrMetallicRoughness":{
				"baseColorTexture":{
					"index":2
				},
				"metallicRoughnessTexture":{
					"index":1
				}
			}
		}
	],
	"meshes":[
		{
			"name":"defaultMaterial",
			"primitives":[
				{
					"attributes":{
						"POSITION":0,
						"NORMAL":1,
						"TEXCOORD_0":2
					},
					"indices":3,
					"material":0
				}
			]
		}
	],
	"textures":[
		{
			"sampler":0,
			"source":0
		},
		{
			"sampler":0,
			"source":1
		},
		{
			"sampler":0,
			"source":2
		}
	],
	"images":[
		{
			"mimeType":"image/png",
			"name":"lambert1_normal",
			"uri":"textures/lambert1_normal.png"
		},
		{
			"mimeType":"image/png",
			"name":"lambert1_metallicRoughness",
			"uri":"textures/lambert1_metallicRoughness.png"
		},
		{
			"mimeType":"image/jpeg",
			"name":"lambert1_baseColor",
			"uri":"textures/lambert1_baseColor.jpg"
		}
	],
	"accessors":[
		{
			"bufferView":0,
			"componentType":5126,
			"count":3339,
			"max":[
				1.1650880575180054,
				2.768070936203003,
				1.0536960363388062
			],
			"min":[
				-1.5369559526443481,
				-2.0714950561523438,
				-1
			],
			"type":"VEC3"
		},
		{
			"bufferView":1,
			"componentType":5126,
			"count":3339,
			"type":"VEC3"
		},
		{
			"bufferView":2,
			"componentType":5126,
			"count":3339,
			"type":"VEC2"
		},
		{
			"bufferView":3,
			"componentType":5123,
			"count":9504,
			"type":"SCALAR"
		}
	],
	"bufferViews":[
		{
			"buffer":0,
			"byteLength":40068,
			"byteOffset":0,
			"target":34962
		},
		{
			"buffer":0,
			"byteLength":40068,
			"byteOffset":40068,
			"target":34962
		},
		{
			"buffer":0,
			"byteLength":26712,
			"byteOffset":80136,
			"target":34962
		},
		{
			"buffer":0,
			"byteLength":19008,
			"byteOffset":106848,
			"target":34963
		}
	],
	"samplers":[
		{
			"magFilter":9729,
			"minFilter":9987
		}
	],
	"buffers":[
		{
			"byteLength":125856,
			"uri":"fridge.bin"
		}
	]
}
