{
	"asset":{
		"generator":"Khronos glTF Blender I/O v4.1.63",
		"version":"2.0"
	},
	"scene":0,
	"scenes":[
		{
			"name":"Scene",
			"nodes":[
				8
			]
		}
	],
	"nodes":[
		{
			"mesh":0,
			"name":"Doors_Doors_0"
		},
		{
			"children":[
				0
			],
			"name":"Doors"
		},
		{
			"mesh":1,
			"name":"Handles_Handles_0"
		},
		{
			"children":[
				2
			],
			"name":"Handles"
		},
		{
			"mesh":2,
			"name":"Main_Wood_Frame_Main_Wood_Frame_0"
		},
		{
			"children":[
				4
			],
			"name":"Main_Wood_Frame"
		},
		{
			"children":[
				1,
				3,
				5
			],
			"name":"RootNode"
		},
		{
			"children":[
				6
			],
			"name":"bc74bd8e08614e62a3e5e2d263e3e7a3.fbx",
			"rotation":[
				0.70710688829422,
				0,
				0,
				0.7071066498756409
			],
			"scale":[
				0.009999999776482582,
				0.009999998845160007,
				0.009999996051192284
			],
			"translation":[
				-0.00124025356490165,
				0,
				0
			]
		},
		{
			"children":[
				7
			],
			"name":"Sketchfab_model.001",
			"rotation":[
				0,
				0.7071066498756409,
				-0.70710688829422,
				0
			],
			"scale":[
				263.45941162109375,
				801.0023193359375,
				394.1358337402344
			],
			"translation":[
				0,
				-7.048681259155273,
				0
			]
		}
	],
	"materials":[
		{
			"doubleSided":true,
			"name":"Doors.001",
			"normalTexture":{
				"index":0
			},
			"occlusionTexture":{
				"index":1
			},
			"pbrMetallicRoughness":{
				"baseColorTexture":{
					"index":2
				},
				"metallicFactor":0,
				"metallicRoughnessTexture":{
					"index":1
				},
				"roughnessFactor":0.8410000205039978
			}
		},
		{
			"doubleSided":true,
			"name":"Handles.001",
			"normalTexture":{
				"index":3
			},
			"occlusionTexture":{
				"index":4
			},
			"pbrMetallicRoughness":{
				"baseColorTexture":{
					"index":5
				},
				"metallicRoughnessTexture":{
					"index":4
				}
			}
		},
		{
			"doubleSided":true,
			"name":"Main_Wood_Frame.001",
			"normalTexture":{
				"index":6
			},
			"occlusionTexture":{
				"index":7
			},
			"pbrMetallicRoughness":{
				"baseColorTexture":{
					"index":8
				},
				"metallicFactor":0,
				"metallicRoughnessTexture":{
					"index":7
				},
				"roughnessFactor":0.8407739400863647
			}
		}
	],
	"meshes":[
		{
			"name":"Doors_Doors_0.001",
			"primitives":[
				{
					"attributes":{
						"POSITION":0,
						"NORMAL":1,
						"TEXCOORD_0":2,
						"TEXCOORD_1":3,
						"TEXCOORD_2":4,
						"TEXCOORD_3":5,
						"TEXCOORD_4":6,
						"TEXCOORD_5":7,
						"TEXCOORD_6":8,
						"TEXCOORD_7":9
					},
					"indices":10,
					"material":0
				}
			]
		},
		{
			"name":"Handles_Handles_0.001",
			"primitives":[
				{
					"attributes":{
						"POSITION":11,
						"NORMAL":12,
						"TEXCOORD_0":13,
						"TEXCOORD_1":14,
						"TEXCOORD_2":15,
						"TEXCOORD_3":16,
						"TEXCOORD_4":17,
						"TEXCOORD_5":18,
						"TEXCOORD_6":19,
						"TEXCOORD_7":20
					},
					"indices":21,
					"material":1
				}
			]
		},
		{
			"name":"Main_Wood_Frame_Main_Wood_Frame_0.001",
			"primitives":[
				{
					"attributes":{
						"POSITION":22,
						"NORMAL":23,
						"TEXCOORD_0":24,
						"TEXCOORD_1":25,
						"TEXCOORD_2":26,
						"TEXCOORD_3":27,
						"TEXCOORD_4":28,
						"TEXCOORD_5":29,
						"TEXCOORD_6":30,
						"TEXCOORD_7":31
					},
					"indices":32,
					"material":2
				}
			]
		}
	],
	"textures":[
		{
			"sampler":0,
			"source":0
		},
		{
			"sampler":0,
			"source":1
		},
		{
			"sampler":0,
			"source":2
		},
		{
			"sampler":0,
			"source":3
		},
		{
			"sampler":0,
			"source":4
		},
		{
			"sampler":0,
			"source":5
		},
		{
			"sampler":0,
			"source":6
		},
		{
			"sampler":0,
			"source":7
		},
		{
			"sampler":0,
			"source":8
		}
	],
	"images":[
		{
			"mimeType":"image/png",
			"name":"Doors_normal",
			"uri":"textures/Doors_normal.png"
		},
		{
			"mimeType":"image/png",
			"name":"Doors_metallicRoughness",
			"uri":"textures/Doors_metallicRoughness.png"
		},
		{
			"mimeType":"image/png",
			"name":"Doors_baseColor",
			"uri":"textures/Doors_baseColor.png"
		},
		{
			"mimeType":"image/png",
			"name":"Handles_normal",
			"uri":"textures/Handles_normal.png"
		},
		{
			"mimeType":"image/png",
			"name":"Handles_metallicRoughness",
			"uri":"textures/Handles_metallicRoughness.png"
		},
		{
			"mimeType":"image/png",
			"name":"Handles_baseColor",
			"uri":"textures/Handles_baseColor.png"
		},
		{
			"mimeType":"image/png",
			"name":"Main_Wood_Frame_normal",
			"uri":"textures/Main_Wood_Frame_normal.png"
		},
		{
			"mimeType":"image/png",
			"name":"Main_Wood_Frame_metallicRoughness",
			"uri":"textures/Main_Wood_Frame_metallicRoughness.png"
		},
		{
			"mimeType":"image/png",
			"name":"Main_Wood_Frame_baseColor",
			"uri":"textures/Main_Wood_Frame_baseColor.png"
		}
	],
	"accessors":[
		{
			"bufferView":0,
			"componentType":5126,
			"count":288,
			"max":[
				1.062332034111023,
				1.2000000476837158,
				2.692439079284668
			],
			"min":[
				0.962332010269165,
				-1.1999999284744263,
				-2.717155933380127
			],
			"type":"VEC3"
		},
		{
			"bufferView":1,
			"componentType":5126,
			"count":288,
			"type":"VEC3"
		},
		{
			"bufferView":2,
			"componentType":5126,
			"count":288,
			"type":"VEC2"
		},
		{
			"bufferView":3,
			"componentType":5126,
			"count":288,
			"type":"VEC2"
		},
		{
			"bufferView":4,
			"componentType":5126,
			"count":288,
			"type":"VEC2"
		},
		{
			"bufferView":5,
			"componentType":5126,
			"count":288,
			"type":"VEC2"
		},
		{
			"bufferView":6,
			"componentType":5126,
			"count":288,
			"type":"VEC2"
		},
		{
			"bufferView":7,
			"componentType":5126,
			"count":288,
			"type":"VEC2"
		},
		{
			"bufferView":8,
			"componentType":5126,
			"count":288,
			"type":"VEC2"
		},
		{
			"bufferView":9,
			"componentType":5126,
			"count":288,
			"type":"VEC2"
		},
		{
			"bufferView":10,
			"componentType":5123,
			"count":540,
			"type":"SCALAR"
		},
		{
			"bufferView":11,
			"componentType":5126,
			"count":489,
			"max":[
				1.0937809944152832,
				-0.30834200978279114,
				1.3160300254821777
			],
			"min":[
				0.9097230434417725,
				-0.7880659699440002,
				-2.4849228858947754
			],
			"type":"VEC3"
		},
		{
			"bufferView":12,
			"componentType":5126,
			"count":489,
			"type":"VEC3"
		},
		{
			"bufferView":13,
			"componentType":5126,
			"count":489,
			"type":"VEC2"
		},
		{
			"bufferView":14,
			"componentType":5126,
			"count":489,
			"type":"VEC2"
		},
		{
			"bufferView":15,
			"componentType":5126,
			"count":489,
			"type":"VEC2"
		},
		{
			"bufferView":16,
			"componentType":5126,
			"count":489,
			"type":"VEC2"
		},
		{
			"bufferView":17,
			"componentType":5126,
			"count":489,
			"type":"VEC2"
		},
		{
			"bufferView":18,
			"componentType":5126,
			"count":489,
			"type":"VEC2"
		},
		{
			"bufferView":19,
			"componentType":5126,
			"count":489,
			"type":"VEC2"
		},
		{
			"bufferView":20,
			"componentType":5126,
			"count":489,
			"type":"VEC2"
		},
		{
			"bufferView":21,
			"componentType":5123,
			"count":2016,
			"type":"SCALAR"
		},
		{
			"bufferView":22,
			"componentType":5126,
			"count":146,
			"max":[
				1.025462031364441,
				1.513010859489441,
				2.9020590782165527
			],
			"min":[
				-1.0254619121551514,
				-1.4926271438598633,
				-2.9020590782165527
			],
			"type":"VEC3"
		},
		{
			"bufferView":23,
			"componentType":5126,
			"count":146,
			"type":"VEC3"
		},
		{
			"bufferView":24,
			"componentType":5126,
			"count":146,
			"type":"VEC2"
		},
		{
			"bufferView":25,
			"componentType":5126,
			"count":146,
			"type":"VEC2"
		},
		{
			"bufferView":26,
			"componentType":5126,
			"count":146,
			"type":"VEC2"
		},
		{
			"bufferView":27,
			"componentType":5126,
			"count":146,
			"type":"VEC2"
		},
		{
			"bufferView":28,
			"componentType":5126,
			"count":146,
			"type":"VEC2"
		},
		{
			"bufferView":29,
			"componentType":5126,
			"count":146,
			"type":"VEC2"
		},
		{
			"bufferView":30,
			"componentType":5126,
			"count":146,
			"type":"VEC2"
		},
		{
			"bufferView":31,
			"componentType":5126,
			"count":146,
			"type":"VEC2"
		},
		{
			"bufferView":32,
			"componentType":5123,
			"count":252,
			"type":"SCALAR"
		}
	],
	"bufferViews":[
		{
			"buffer":0,
			"byteLength":3456,
			"byteOffset":0,
			"target":34962
		},
		{
			"buffer":0,
			"byteLength":3456,
			"byteOffset":3456,
			"target":34962
		},
		{
			"buffer":0,
			"byteLength":2304,
			"byteOffset":6912,
			"target":34962
		},
		{
			"buffer":0,
			"byteLength":2304,
			"byteOffset":9216,
			"target":34962
		},
		{
			"buffer":0,
			"byteLength":2304,
			"byteOffset":11520,
			"target":34962
		},
		{
			"buffer":0,
			"byteLength":2304,
			"byteOffset":13824,
			"target":34962
		},
		{
			"buffer":0,
			"byteLength":2304,
			"byteOffset":16128,
			"target":34962
		},
		{
			"buffer":0,
			"byteLength":2304,
			"byteOffset":18432,
			"target":34962
		},
		{
			"buffer":0,
			"byteLength":2304,
			"byteOffset":20736,
			"target":34962
		},
		{
			"buffer":0,
			"byteLength":2304,
			"byteOffset":23040,
			"target":34962
		},
		{
			"buffer":0,
			"byteLength":1080,
			"byteOffset":25344,
			"target":34963
		},
		{
			"buffer":0,
			"byteLength":5868,
			"byteOffset":26424,
			"target":34962
		},
		{
			"buffer":0,
			"byteLength":5868,
			"byteOffset":32292,
			"target":34962
		},
		{
			"buffer":0,
			"byteLength":3912,
			"byteOffset":38160,
			"target":34962
		},
		{
			"buffer":0,
			"byteLength":3912,
			"byteOffset":42072,
			"target":34962
		},
		{
			"buffer":0,
			"byteLength":3912,
			"byteOffset":45984,
			"target":34962
		},
		{
			"buffer":0,
			"byteLength":3912,
			"byteOffset":49896,
			"target":34962
		},
		{
			"buffer":0,
			"byteLength":3912,
			"byteOffset":53808,
			"target":34962
		},
		{
			"buffer":0,
			"byteLength":3912,
			"byteOffset":57720,
			"target":34962
		},
		{
			"buffer":0,
			"byteLength":3912,
			"byteOffset":61632,
			"target":34962
		},
		{
			"buffer":0,
			"byteLength":3912,
			"byteOffset":65544,
			"target":34962
		},
		{
			"buffer":0,
			"byteLength":4032,
			"byteOffset":69456,
			"target":34963
		},
		{
			"buffer":0,
			"byteLength":1752,
			"byteOffset":73488,
			"target":34962
		},
		{
			"buffer":0,
			"byteLength":1752,
			"byteOffset":75240,
			"target":34962
		},
		{
			"buffer":0,
			"byteLength":1168,
			"byteOffset":76992,
			"target":34962
		},
		{
			"buffer":0,
			"byteLength":1168,
			"byteOffset":78160,
			"target":34962
		},
		{
			"buffer":0,
			"byteLength":1168,
			"byteOffset":79328,
			"target":34962
		},
		{
			"buffer":0,
			"byteLength":1168,
			"byteOffset":80496,
			"target":34962
		},
		{
			"buffer":0,
			"byteLength":1168,
			"byteOffset":81664,
			"target":34962
		},
		{
			"buffer":0,
			"byteLength":1168,
			"byteOffset":82832,
			"target":34962
		},
		{
			"buffer":0,
			"byteLength":1168,
			"byteOffset":84000,
			"target":34962
		},
		{
			"buffer":0,
			"byteLength":1168,
			"byteOffset":85168,
			"target":34962
		},
		{
			"buffer":0,
			"byteLength":504,
			"byteOffset":86336,
			"target":34963
		}
	],
	"samplers":[
		{
			"magFilter":9729,
			"minFilter":9987
		}
	],
	"buffers":[
		{
			"byteLength":86840,
			"uri":"furniture2.bin"
		}
	]
}
