{
	"asset":{
		"generator":"Khronos glTF Blender I/O v4.1.63",
		"version":"2.0"
	},
	"scene":0,
	"scenes":[
		{
			"name":"Scene",
			"nodes":[
				24
			]
		}
	],
	"nodes":[
		{
			"mesh":0,
			"name":"Stove_baingPan.002_Material_0"
		},
		{
			"children":[
				0
			],
			"name":"Stove_baingPan.002",
			"rotation":[
				-0.70710688829422,
				0,
				0,
				0.7071066498756409
			],
			"scale":[
				100,
				99.99999237060547,
				99.99999237060547
			],
			"translation":[
				0,
				116.35335540771484,
				12.975494384765625
			]
		},
		{
			"mesh":1,
			"name":"Stove_base.003_Material_0"
		},
		{
			"children":[
				2
			],
			"name":"Stove_base.003",
			"rotation":[
				-0.70710688829422,
				0,
				0,
				0.7071066498756409
			],
			"scale":[
				100,
				99.99999237060547,
				99.99999237060547
			],
			"translation":[
				0,
				137.59523010253906,
				0
			]
		},
		{
			"mesh":2,
			"name":"Stove_door.003_Material_0"
		},
		{
			"children":[
				4
			],
			"name":"Stove_door.003",
			"rotation":[
				-0.70710688829422,
				0,
				0,
				0.7071066498756409
			],
			"scale":[
				100,
				99.99999237060547,
				99.99999237060547
			],
			"translation":[
				0,
				137.59523010253906,
				0
			]
		},
		{
			"mesh":3,
			"name":"Stove_frontBtm.001_Material_0"
		},
		{
			"children":[
				6
			],
			"name":"Stove_frontBtm.001",
			"rotation":[
				-0.5,
				-0.5,
				-0.5,
				0.5
			],
			"scale":[
				100,
				100,
				99.99999237060547
			],
			"translation":[
				0,
				137.59523010253906,
				0
			]
		},
		{
			"mesh":4,
			"name":"Stove_frontTop.001_Material_0"
		},
		{
			"children":[
				8
			],
			"name":"Stove_frontTop.001",
			"rotation":[
				-0.5,
				-0.5,
				-0.5,
				0.5
			],
			"scale":[
				100,
				100,
				99.99999237060547
			],
			"translation":[
				0,
				137.59523010253906,
				0
			]
		},
		{
			"mesh":5,
			"name":"Stove_glass.002_Material_0"
		},
		{
			"children":[
				10
			],
			"name":"Stove_glass.002",
			"rotation":[
				-0.70710688829422,
				0,
				0,
				0.7071066498756409
			],
			"scale":[
				100,
				99.99999237060547,
				99.99999237060547
			],
			"translation":[
				0,
				121.45030212402344,
				90.64752197265625
			]
		},
		{
			"mesh":6,
			"name":"Stove_grate.002_Material_0"
		},
		{
			"children":[
				12
			],
			"name":"Stove_grate.002",
			"rotation":[
				-0.70710688829422,
				0,
				0,
				0.7071066498756409
			],
			"scale":[
				100,
				99.99999237060547,
				99.99999237060547
			],
			"translation":[
				-44.680328369140625,
				260.1351623535156,
				1.5891724824905396
			]
		},
		{
			"mesh":7,
			"name":"Stove_handle.002_Material_0"
		},
		{
			"children":[
				14
			],
			"name":"Stove_handle.002",
			"rotation":[
				-0.70710688829422,
				0,
				0,
				0.7071066498756409
			],
			"scale":[
				100,
				99.99999237060547,
				99.99999237060547
			],
			"translation":[
				0,
				193.12245178222656,
				95.00853729248047
			]
		},
		{
			"mesh":8,
			"name":"Stove_heaters.001_Material_0"
		},
		{
			"children":[
				16
			],
			"name":"Stove_heaters.001",
			"rotation":[
				-0.70710688829422,
				0,
				0,
				0.7071066498756409
			],
			"scale":[
				100,
				99.99999237060547,
				99.99999237060547
			],
			"translation":[
				-44.680328369140625,
				260.1351623535156,
				1.5891724824905396
			]
		},
		{
			"mesh":9,
			"name":"Stove_legs.002_Material_0"
		},
		{
			"children":[
				18
			],
			"name":"Stove_legs.002",
			"rotation":[
				-0.70710688829422,
				0,
				0,
				0.7071066498756409
			],
			"scale":[
				100,
				99.99999237060547,
				99.99999237060547
			],
			"translation":[
				-77.31641387939453,
				9.7227201461792,
				63.88251876831055
			]
		},
		{
			"mesh":10,
			"name":"Stove_switches.002_Material_0"
		},
		{
			"children":[
				20
			],
			"name":"Stove_switches.002",
			"rotation":[
				-0.70710688829422,
				0,
				0,
				0.7071066498756409
			],
			"scale":[
				100,
				99.99999237060547,
				99.99999237060547
			],
			"translation":[
				-72.99494171142578,
				234.6077117919922,
				99.26918029785156
			]
		},
		{
			"children":[
				1,
				3,
				5,
				7,
				9,
				11,
				13,
				15,
				17,
				19,
				21
			],
			"name":"RootNode.002",
			"translation":[
				0,
				7.62939453125e-06,
				0
			]
		},
		{
			"children":[
				22
			],
			"name":"dc1d5c67f6a44488a883bd9027b6a09a.fbx",
			"rotation":[
				0.70710688829422,
				0,
				0,
				0.7071066498756409
			],
			"scale":[
				0.009999999776482582,
				0.010000001639127731,
				0.010000000707805157
			]
		},
		{
			"children":[
				23
			],
			"name":"Sketchfab_model.003",
			"rotation":[
				-0.518208384513855,
				0.48110297322273254,
				0.4811030328273773,
				0.5182083249092102
			],
			"scale":[
				6.712089538574219,
				3.522503137588501,
				4.971818447113037
			],
			"translation":[
				0,
				-6.145994663238525,
				0
			]
		}
	],
	"materials":[
		{
			"alphaMode":"BLEND",
			"doubleSided":true,
			"name":"Material",
			"normalTexture":{
				"index":0
			},
			"occlusionTexture":{
				"index":1
			},
			"pbrMetallicRoughness":{
				"baseColorTexture":{
					"index":2
				},
				"metallicRoughnessTexture":{
					"index":1
				}
			}
		}
	],
	"meshes":[
		{
			"name":"Stove_baingPan.002_Material_0",
			"primitives":[
				{
					"attributes":{
						"POSITION":0,
						"NORMAL":1,
						"TEXCOORD_0":2
					},
					"indices":3,
					"material":0
				}
			]
		},
		{
			"name":"Stove_base.003_Material_0",
			"primitives":[
				{
					"attributes":{
						"POSITION":4,
						"NORMAL":5,
						"TEXCOORD_0":6
					},
					"indices":7,
					"material":0
				}
			]
		},
		{
			"name":"Stove_door.003_Material_0",
			"primitives":[
				{
					"attributes":{
						"POSITION":8,
						"NORMAL":9,
						"TEXCOORD_0":10
					},
					"indices":11,
					"material":0
				}
			]
		},
		{
			"name":"Stove_frontBtm.001_Material_0",
			"primitives":[
				{
					"attributes":{
						"POSITION":12,
						"NORMAL":13,
						"TEXCOORD_0":14
					},
					"indices":15,
					"material":0
				}
			]
		},
		{
			"name":"Stove_frontTop.001_Material_0",
			"primitives":[
				{
					"attributes":{
						"POSITION":16,
						"NORMAL":17,
						"TEXCOORD_0":18
					},
					"indices":19,
					"material":0
				}
			]
		},
		{
			"name":"Stove_glass.002_Material_0",
			"primitives":[
				{
					"attributes":{
						"POSITION":20,
						"NORMAL":21,
						"TEXCOORD_0":22
					},
					"indices":23,
					"material":0
				}
			]
		},
		{
			"name":"Stove_grate.002_Material_0",
			"primitives":[
				{
					"attributes":{
						"POSITION":24,
						"NORMAL":25,
						"TEXCOORD_0":26
					},
					"indices":27,
					"material":0
				}
			]
		},
		{
			"name":"Stove_handle.002_Material_0",
			"primitives":[
				{
					"attributes":{
						"POSITION":28,
						"NORMAL":29,
						"TEXCOORD_0":30
					},
					"indices":31,
					"material":0
				}
			]
		},
		{
			"name":"Stove_heaters.001_Material_0",
			"primitives":[
				{
					"attributes":{
						"POSITION":32,
						"NORMAL":33,
						"TEXCOORD_0":34
					},
					"indices":35,
					"material":0
				}
			]
		},
		{
			"name":"Stove_legs.002_Material_0",
			"primitives":[
				{
					"attributes":{
						"POSITION":36,
						"NORMAL":37,
						"TEXCOORD_0":38
					},
					"indices":39,
					"material":0
				}
			]
		},
		{
			"name":"Stove_switches.002_Material_0",
			"primitives":[
				{
					"attributes":{
						"POSITION":40,
						"NORMAL":41,
						"TEXCOORD_0":42
					},
					"indices":43,
					"material":0
				}
			]
		}
	],
	"textures":[
		{
			"sampler":0,
			"source":0
		},
		{
			"sampler":0,
			"source":1
		},
		{
			"sampler":0,
			"source":2
		}
	],
	"images":[
		{
			"mimeType":"image/png",
			"name":"Material_normal",
			"uri":"textures/Material_normal.png"
		},
		{
			"mimeType":"image/png",
			"name":"Material_metallicRoughness",
			"uri":"textures/Material_metallicRoughness.png"
		},
		{
			"mimeType":"image/png",
			"name":"Material_baseColor",
			"uri":"textures/Material_baseColor.png"
		}
	],
	"accessors":[
		{
			"bufferView":0,
			"componentType":5126,
			"count":189,
			"max":[
				0.8736039400100708,
				0.4490397572517395,
				0.016965247690677643
			],
			"min":[
				-0.8736039400100708,
				-0.6114588379859924,
				-0.05390405282378197
			],
			"type":"VEC3"
		},
		{
			"bufferView":1,
			"componentType":5126,
			"count":189,
			"type":"VEC3"
		},
		{
			"bufferView":2,
			"componentType":5126,
			"count":189,
			"type":"VEC2"
		},
		{
			"bufferView":3,
			"componentType":5123,
			"count":756,
			"type":"SCALAR"
		},
		{
			"bufferView":4,
			"componentType":5126,
			"count":394,
			"max":[
				1,
				0.8329648971557617,
				1.1986045837402344
			],
			"min":[
				-1,
				-0.8649184703826904,
				-1.1986045837402344
			],
			"type":"VEC3"
		},
		{
			"bufferView":5,
			"componentType":5126,
			"count":394,
			"type":"VEC3"
		},
		{
			"bufferView":6,
			"componentType":5126,
			"count":394,
			"type":"VEC2"
		},
		{
			"bufferView":7,
			"componentType":5123,
			"count":576,
			"type":"SCALAR"
		},
		{
			"bufferView":8,
			"componentType":5126,
			"count":104,
			"max":[
				0.9999999403953552,
				-0.8649183511734009,
				0.7376289963722229
			],
			"min":[
				-1,
				-0.9429094195365906,
				-0.9085907936096191
			],
			"type":"VEC3"
		},
		{
			"bufferView":9,
			"componentType":5126,
			"count":104,
			"type":"VEC3"
		},
		{
			"bufferView":10,
			"componentType":5126,
			"count":104,
			"type":"VEC2"
		},
		{
			"bufferView":11,
			"componentType":5123,
			"count":288,
			"type":"SCALAR"
		},
		{
			"bufferView":12,
			"componentType":5126,
			"count":44,
			"max":[
				0.9429093599319458,
				1,
				-0.917123556137085
			],
			"min":[
				0.8649184107780457,
				-1,
				-1.1986045837402344
			],
			"type":"VEC3"
		},
		{
			"bufferView":13,
			"componentType":5126,
			"count":44,
			"type":"VEC3"
		},
		{
			"bufferView":14,
			"componentType":5126,
			"count":44,
			"type":"VEC2"
		},
		{
			"bufferView":15,
			"componentType":5123,
			"count":126,
			"type":"SCALAR"
		},
		{
			"bufferView":16,
			"componentType":5126,
			"count":42,
			"max":[
				0.9429093599319458,
				1,
				1.1986045837402344
			],
			"min":[
				0.8649184107780457,
				-1,
				0.7433323860168457
			],
			"type":"VEC3"
		},
		{
			"bufferView":17,
			"componentType":5126,
			"count":42,
			"type":"VEC3"
		},
		{
			"bufferView":18,
			"componentType":5126,
			"count":42,
			"type":"VEC2"
		},
		{
			"bufferView":19,
			"componentType":5123,
			"count":126,
			"type":"SCALAR"
		},
		{
			"bufferView":20,
			"componentType":5126,
			"count":4,
			"max":[
				0.7641494274139404,
				2.340732585537353e-08,
				0.5354971885681152
			],
			"min":[
				-0.7641494274139404,
				-2.340732585537353e-08,
				-0.5354971885681152
			],
			"type":"VEC3"
		},
		{
			"bufferView":21,
			"componentType":5126,
			"count":4,
			"type":"VEC3"
		},
		{
			"bufferView":22,
			"componentType":5126,
			"count":4,
			"type":"VEC2"
		},
		{
			"bufferView":23,
			"componentType":5123,
			"count":6,
			"type":"SCALAR"
		},
		{
			"bufferView":24,
			"componentType":5126,
			"count":1364,
			"max":[
				1.3280491828918457,
				0.7249224781990051,
				0.025327811017632484
			],
			"min":[
				-0.4330490827560425,
				-0.7249224781990051,
				-0.08013680577278137
			],
			"type":"VEC3"
		},
		{
			"bufferView":25,
			"componentType":5126,
			"count":1364,
			"type":"VEC3"
		},
		{
			"bufferView":26,
			"componentType":5126,
			"count":1364,
			"type":"VEC2"
		},
		{
			"bufferView":27,
			"componentType":5123,
			"count":2424,
			"type":"SCALAR"
		},
		{
			"bufferView":28,
			"componentType":5126,
			"count":72,
			"max":[
				0.8734033703804016,
				0.012708689086139202,
				0.04136021435260773
			],
			"min":[
				-0.8716522455215454,
				-0.115597203373909,
				-0.0734761580824852
			],
			"type":"VEC3"
		},
		{
			"bufferView":29,
			"componentType":5126,
			"count":72,
			"type":"VEC3"
		},
		{
			"bufferView":30,
			"componentType":5126,
			"count":72,
			"type":"VEC2"
		},
		{
			"bufferView":31,
			"componentType":5123,
			"count":180,
			"type":"SCALAR"
		},
		{
			"bufferView":32,
			"componentType":5126,
			"count":196,
			"max":[
				1.0845686197280884,
				0.542029857635498,
				-0.033626534044742584
			],
			"min":[
				-0.1895686239004135,
				-0.5423026084899902,
				-0.0801367238163948
			],
			"type":"VEC3"
		},
		{
			"bufferView":33,
			"componentType":5126,
			"count":196,
			"type":"VEC3"
		},
		{
			"bufferView":34,
			"componentType":5126,
			"count":196,
			"type":"VEC2"
		},
		{
			"bufferView":35,
			"componentType":5123,
			"count":576,
			"type":"SCALAR"
		},
		{
			"bufferView":36,
			"componentType":5126,
			"count":80,
			"max":[
				1.6177585124969482,
				1.3290996551513672,
				0.08012065291404724
			],
			"min":[
				-0.07930189371109009,
				-0.07930189371109009,
				-0.097227081656456
			],
			"type":"VEC3"
		},
		{
			"bufferView":37,
			"componentType":5126,
			"count":80,
			"type":"VEC3"
		},
		{
			"bufferView":38,
			"componentType":5126,
			"count":80,
			"type":"VEC2"
		},
		{
			"bufferView":39,
			"componentType":5123,
			"count":120,
			"type":"SCALAR"
		},
		{
			"bufferView":40,
			"componentType":5126,
			"count":425,
			"max":[
				1.5702210664749146,
				0.04540836066007614,
				0.10039778798818588
			],
			"min":[
				-0.10039777308702469,
				-0.033577658236026764,
				-0.10039777308702469
			],
			"type":"VEC3"
		},
		{
			"bufferView":41,
			"componentType":5126,
			"count":425,
			"type":"VEC3"
		},
		{
			"bufferView":42,
			"componentType":5126,
			"count":425,
			"type":"VEC2"
		},
		{
			"bufferView":43,
			"componentType":5123,
			"count":1080,
			"type":"SCALAR"
		}
	],
	"bufferViews":[
		{
			"buffer":0,
			"byteLength":2268,
			"byteOffset":0,
			"target":34962
		},
		{
			"buffer":0,
			"byteLength":2268,
			"byteOffset":2268,
			"target":34962
		},
		{
			"buffer":0,
			"byteLength":1512,
			"byteOffset":4536,
			"target":34962
		},
		{
			"buffer":0,
			"byteLength":1512,
			"byteOffset":6048,
			"target":34963
		},
		{
			"buffer":0,
			"byteLength":4728,
			"byteOffset":7560,
			"target":34962
		},
		{
			"buffer":0,
			"byteLength":4728,
			"byteOffset":12288,
			"target":34962
		},
		{
			"buffer":0,
			"byteLength":3152,
			"byteOffset":17016,
			"target":34962
		},
		{
			"buffer":0,
			"byteLength":1152,
			"byteOffset":20168,
			"target":34963
		},
		{
			"buffer":0,
			"byteLength":1248,
			"byteOffset":21320,
			"target":34962
		},
		{
			"buffer":0,
			"byteLength":1248,
			"byteOffset":22568,
			"target":34962
		},
		{
			"buffer":0,
			"byteLength":832,
			"byteOffset":23816,
			"target":34962
		},
		{
			"buffer":0,
			"byteLength":576,
			"byteOffset":24648,
			"target":34963
		},
		{
			"buffer":0,
			"byteLength":528,
			"byteOffset":25224,
			"target":34962
		},
		{
			"buffer":0,
			"byteLength":528,
			"byteOffset":25752,
			"target":34962
		},
		{
			"buffer":0,
			"byteLength":352,
			"byteOffset":26280,
			"target":34962
		},
		{
			"buffer":0,
			"byteLength":252,
			"byteOffset":26632,
			"target":34963
		},
		{
			"buffer":0,
			"byteLength":504,
			"byteOffset":26884,
			"target":34962
		},
		{
			"buffer":0,
			"byteLength":504,
			"byteOffset":27388,
			"target":34962
		},
		{
			"buffer":0,
			"byteLength":336,
			"byteOffset":27892,
			"target":34962
		},
		{
			"buffer":0,
			"byteLength":252,
			"byteOffset":28228,
			"target":34963
		},
		{
			"buffer":0,
			"byteLength":48,
			"byteOffset":28480,
			"target":34962
		},
		{
			"buffer":0,
			"byteLength":48,
			"byteOffset":28528,
			"target":34962
		},
		{
			"buffer":0,
			"byteLength":32,
			"byteOffset":28576,
			"target":34962
		},
		{
			"buffer":0,
			"byteLength":12,
			"byteOffset":28608,
			"target":34963
		},
		{
			"buffer":0,
			"byteLength":16368,
			"byteOffset":28620,
			"target":34962
		},
		{
			"buffer":0,
			"byteLength":16368,
			"byteOffset":44988,
			"target":34962
		},
		{
			"buffer":0,
			"byteLength":10912,
			"byteOffset":61356,
			"target":34962
		},
		{
			"buffer":0,
			"byteLength":4848,
			"byteOffset":72268,
			"target":34963
		},
		{
			"buffer":0,
			"byteLength":864,
			"byteOffset":77116,
			"target":34962
		},
		{
			"buffer":0,
			"byteLength":864,
			"byteOffset":77980,
			"target":34962
		},
		{
			"buffer":0,
			"byteLength":576,
			"byteOffset":78844,
			"target":34962
		},
		{
			"buffer":0,
			"byteLength":360,
			"byteOffset":79420,
			"target":34963
		},
		{
			"buffer":0,
			"byteLength":2352,
			"byteOffset":79780,
			"target":34962
		},
		{
			"buffer":0,
			"byteLength":2352,
			"byteOffset":82132,
			"target":34962
		},
		{
			"buffer":0,
			"byteLength":1568,
			"byteOffset":84484,
			"target":34962
		},
		{
			"buffer":0,
			"byteLength":1152,
			"byteOffset":86052,
			"target":34963
		},
		{
			"buffer":0,
			"byteLength":960,
			"byteOffset":87204,
			"target":34962
		},
		{
			"buffer":0,
			"byteLength":960,
			"byteOffset":88164,
			"target":34962
		},
		{
			"buffer":0,
			"byteLength":640,
			"byteOffset":89124,
			"target":34962
		},
		{
			"buffer":0,
			"byteLength":240,
			"byteOffset":89764,
			"target":34963
		},
		{
			"buffer":0,
			"byteLength":5100,
			"byteOffset":90004,
			"target":34962
		},
		{
			"buffer":0,
			"byteLength":5100,
			"byteOffset":95104,
			"target":34962
		},
		{
			"buffer":0,
			"byteLength":3400,
			"byteOffset":100204,
			"target":34962
		},
		{
			"buffer":0,
			"byteLength":2160,
			"byteOffset":103604,
			"target":34963
		}
	],
	"samplers":[
		{
			"magFilter":9729,
			"minFilter":9987
		}
	],
	"buffers":[
		{
			"byteLength":105764,
			"uri":"coraline2.bin"
		}
	]
}
