{
	"asset":{
		"generator":"Khronos glTF Blender I/O v4.1.63",
		"version":"2.0"
	},
	"extensionsUsed":[
		"KHR_materials_clearcoat"
	],
	"scene":0,
	"scenes":[
		{
			"name":"Scene",
			"nodes":[
				7
			]
		}
	],
	"nodes":[
		{
			"mesh":0,
			"name":"Cube_Body_0"
		},
		{
			"mesh":1,
			"name":"Cube_Handles_0"
		},
		{
			"mesh":2,
			"name":"Cube_Text_0"
		},
		{
			"mesh":3,
			"name":"Cube_Trim_0"
		},
		{
			"children":[
				0,
				1,
				2,
				3
			],
			"name":"Cube",
			"rotation":[
				0,
				0,
				0.7071068286895752,
				0.7071067094802856
			],
			"scale":[
				210.65208435058594,
				242.6743621826172,
				424.68011474609375
			]
		},
		{
			"children":[
				4
			],
			"name":"RootNode.005"
		},
		{
			"children":[
				5
			],
			"name":"Retro Fridge.fbx.001",
			"rotation":[
				1,
				0,
				0,
				3.7608269475535835e-17
			],
			"scale":[
				0.009999998845160007,
				0.009999997913837433,
				0.010000000707805157
			]
		},
		{
			"children":[
				6
			],
			"name":"Sketchfab_model.010",
			"rotation":[
				0.49093276262283325,
				-0.5089057087898254,
				0.5089057087898254,
				0.49093273282051086
			],
			"scale":[
				1.9851185083389282,
				2.3445236682891846,
				2.1229820251464844
			],
			"translation":[
				0,
				2.724916458129883,
				0
			]
		}
	],
	"materials":[
		{
			"doubleSided":true,
			"name":"Body.001",
			"pbrMetallicRoughness":{
				"baseColorTexture":{
					"index":0
				},
				"metallicFactor":0,
				"roughnessFactor":0.07000000029802322
			}
		},
		{
			"doubleSided":true,
			"extensions":{
				"KHR_materials_clearcoat":{
					"clearcoatFactor":1,
					"clearcoatRoughnessFactor":0.03999999910593033
				}
			},
			"name":"Handles.002",
			"pbrMetallicRoughness":{
				"baseColorFactor":[
					0.800000011920929,
					0.800000011920929,
					0.800000011920929,
					1
				],
				"roughnessFactor":0.1916908621788025
			}
		},
		{
			"doubleSided":true,
			"extensions":{
				"KHR_materials_clearcoat":{
					"clearcoatFactor":1,
					"clearcoatRoughnessFactor":0.03999999910593033
				}
			},
			"name":"Text.001",
			"pbrMetallicRoughness":{
				"baseColorFactor":[
					0.06714979559183121,
					0.042651597410440445,
					0.042651597410440445,
					1
				],
				"metallicFactor":0.29688045382499695,
				"roughnessFactor":0
			}
		},
		{
			"doubleSided":true,
			"name":"Trim.001",
			"pbrMetallicRoughness":{
				"baseColorFactor":[
					0,
					0,
					0,
					1
				],
				"metallicFactor":0.6572052240371704,
				"roughnessFactor":0.11032720655202866
			}
		}
	],
	"meshes":[
		{
			"name":"Cube_Body_0",
			"primitives":[
				{
					"attributes":{
						"POSITION":0,
						"NORMAL":1,
						"TEXCOORD_0":2
					},
					"indices":3,
					"material":0
				}
			]
		},
		{
			"name":"Cube_Handles_0",
			"primitives":[
				{
					"attributes":{
						"POSITION":4,
						"NORMAL":5,
						"TEXCOORD_0":6
					},
					"indices":7,
					"material":1
				}
			]
		},
		{
			"name":"Cube_Text_0",
			"primitives":[
				{
					"attributes":{
						"POSITION":8,
						"NORMAL":9,
						"TEXCOORD_0":10
					},
					"indices":11,
					"material":2
				}
			]
		},
		{
			"name":"Cube_Trim_0",
			"primitives":[
				{
					"attributes":{
						"POSITION":12,
						"NORMAL":13,
						"TEXCOORD_0":14
					},
					"indices":15,
					"material":3
				}
			]
		}
	],
	"textures":[
		{
			"sampler":0,
			"source":0
		}
	],
	"images":[
		{
			"mimeType":"image/jpeg",
			"name":"Body_baseColor",
			"uri":"textures/Body_baseColor.jpg"
		}
	],
	"accessors":[
		{
			"bufferView":0,
			"componentType":5126,
			"count":13726,
			"max":[
				0.9944599866867065,
				0.9944601058959961,
				0.9432599544525146
			],
			"min":[
				-0.9944599866867065,
				-0.9944601058959961,
				-0.9605322480201721
			],
			"type":"VEC3"
		},
		{
			"bufferView":1,
			"componentType":5126,
			"count":13726,
			"type":"VEC3"
		},
		{
			"bufferView":2,
			"componentType":5126,
			"count":13726,
			"type":"VEC2"
		},
		{
			"bufferView":3,
			"componentType":5123,
			"count":76350,
			"type":"SCALAR"
		},
		{
			"bufferView":4,
			"componentType":5126,
			"count":5517,
			"max":[
				1.219395399093628,
				-0.2329222559928894,
				0.47449374198913574
			],
			"min":[
				0.9313032627105713,
				-0.7564730048179626,
				0.26618754863739014
			],
			"type":"VEC3"
		},
		{
			"bufferView":5,
			"componentType":5126,
			"count":5517,
			"type":"VEC3"
		},
		{
			"bufferView":6,
			"componentType":5126,
			"count":5517,
			"type":"VEC2"
		},
		{
			"bufferView":7,
			"componentType":5123,
			"count":27648,
			"type":"SCALAR"
		},
		{
			"bufferView":8,
			"componentType":5126,
			"count":3524,
			"max":[
				0.9735840559005737,
				0.3043713867664337,
				0.7405253648757935
			],
			"min":[
				0.9495593905448914,
				-0.30986690521240234,
				0.6676639914512634
			],
			"type":"VEC3"
		},
		{
			"bufferView":9,
			"componentType":5126,
			"count":3524,
			"type":"VEC3"
		},
		{
			"bufferView":10,
			"componentType":5126,
			"count":3524,
			"type":"VEC2"
		},
		{
			"bufferView":11,
			"componentType":5123,
			"count":20946,
			"type":"SCALAR"
		},
		{
			"bufferView":12,
			"componentType":5126,
			"count":452,
			"max":[
				0.4661940634250641,
				0.9853444695472717,
				0.9378801584243774
			],
			"min":[
				0.3708150088787079,
				-0.9853444695472717,
				-0.9582404494285583
			],
			"type":"VEC3"
		},
		{
			"bufferView":13,
			"componentType":5126,
			"count":452,
			"type":"VEC3"
		},
		{
			"bufferView":14,
			"componentType":5126,
			"count":452,
			"type":"VEC2"
		},
		{
			"bufferView":15,
			"componentType":5123,
			"count":2622,
			"type":"SCALAR"
		}
	],
	"bufferViews":[
		{
			"buffer":0,
			"byteLength":164712,
			"byteOffset":0,
			"target":34962
		},
		{
			"buffer":0,
			"byteLength":164712,
			"byteOffset":164712,
			"target":34962
		},
		{
			"buffer":0,
			"byteLength":109808,
			"byteOffset":329424,
			"target":34962
		},
		{
			"buffer":0,
			"byteLength":152700,
			"byteOffset":439232,
			"target":34963
		},
		{
			"buffer":0,
			"byteLength":66204,
			"byteOffset":591932,
			"target":34962
		},
		{
			"buffer":0,
			"byteLength":66204,
			"byteOffset":658136,
			"target":34962
		},
		{
			"buffer":0,
			"byteLength":44136,
			"byteOffset":724340,
			"target":34962
		},
		{
			"buffer":0,
			"byteLength":55296,
			"byteOffset":768476,
			"target":34963
		},
		{
			"buffer":0,
			"byteLength":42288,
			"byteOffset":823772,
			"target":34962
		},
		{
			"buffer":0,
			"byteLength":42288,
			"byteOffset":866060,
			"target":34962
		},
		{
			"buffer":0,
			"byteLength":28192,
			"byteOffset":908348,
			"target":34962
		},
		{
			"buffer":0,
			"byteLength":41892,
			"byteOffset":936540,
			"target":34963
		},
		{
			"buffer":0,
			"byteLength":5424,
			"byteOffset":978432,
			"target":34962
		},
		{
			"buffer":0,
			"byteLength":5424,
			"byteOffset":983856,
			"target":34962
		},
		{
			"buffer":0,
			"byteLength":3616,
			"byteOffset":989280,
			"target":34962
		},
		{
			"buffer":0,
			"byteLength":5244,
			"byteOffset":992896,
			"target":34963
		}
	],
	"samplers":[
		{
			"magFilter":9729,
			"minFilter":9987
		}
	],
	"buffers":[
		{
			"byteLength":998140,
			"uri":"coraline-copia.bin"
		}
	]
}
