{
	"asset":{
		"generator":"Khronos glTF Blender I/O v4.1.63",
		"version":"2.0"
	},
	"scene":0,
	"scenes":[
		{
			"name":"Scene",
			"nodes":[
				14
			]
		}
	],
	"nodes":[
		{
			"mesh":0,
			"name":"Object_11.001"
		},
		{
			"mesh":1,
			"name":"Object_12.001"
		},
		{
			"mesh":2,
			"name":"Object_13.001"
		},
		{
			"mesh":3,
			"name":"Object_14.001"
		},
		{
			"mesh":4,
			"name":"Object_15.001"
		},
		{
			"mesh":5,
			"name":"Object_16.001"
		},
		{
			"name":"Object_2.003"
		},
		{
			"mesh":6,
			"name":"Object_3.002"
		},
		{
			"mesh":7,
			"name":"Object_4.002"
		},
		{
			"mesh":8,
			"name":"Object_5.001"
		},
		{
			"mesh":9,
			"name":"Object_6.001"
		},
		{
			"mesh":10,
			"name":"Object_8.001"
		},
		{
			"mesh":11,
			"name":"Object_9.001",
			"translation":[
				0,
				0,
				0.22051949799060822
			]
		},
		{
			"children":[
				0,
				1,
				2,
				3,
				4,
				5,
				6,
				7,
				8,
				9,
				10,
				11,
				12
			],
			"name":"cake.obj.cleaner.materialmerger.gles",
			"translation":[
				0,
				-2.1476707458496094,
				-0.04490242898464203
			]
		},
		{
			"children":[
				13
			],
			"name":"Sketchfab_model.010",
			"rotation":[
				-0.70710688829422,
				0,
				0,
				0.7071066498756409
			],
			"scale":[
				4.742407321929932,
				3.619934558868408,
				4.120023250579834
			],
			"translation":[
				2.584494113922119,
				2.149848222732544,
				-0.9457893371582031
			]
		}
	],
	"materials":[
		{
			"doubleSided":true,
			"name":"plate_pattern",
			"pbrMetallicRoughness":{
				"baseColorFactor":[
					0,
					0,
					0,
					1
				],
				"metallicFactor":0,
				"roughnessFactor":0.6000000238418579
			}
		},
		{
			"doubleSided":true,
			"name":"text",
			"pbrMetallicRoughness":{
				"baseColorFactor":[
					0.18118534982204437,
					0.0011901144171133637,
					0.0011901144171133637,
					1
				],
				"metallicFactor":0,
				"roughnessFactor":0
			}
		},
		{
			"doubleSided":true,
			"name":"plate",
			"pbrMetallicRoughness":{
				"baseColorTexture":{
					"index":0
				},
				"metallicFactor":0,
				"roughnessFactor":0.6000000238418579
			}
		},
		{
			"doubleSided":true,
			"name":"icing_2",
			"pbrMetallicRoughness":{
				"baseColorTexture":{
					"index":1
				},
				"metallicFactor":0,
				"roughnessFactor":0.33357349038124084
			}
		},
		{
			"doubleSided":true,
			"emissiveFactor":[
				0.4248685836791992,
				0.19721871614456177,
				0.12005501240491867
			],
			"name":"flames",
			"pbrMetallicRoughness":{
				"baseColorFactor":[
					0.8380804061889648,
					0.20172874629497528,
					0.041893526911735535,
					1
				],
				"metallicFactor":0,
				"roughnessFactor":0.6000000238418579
			}
		},
		{
			"doubleSided":true,
			"name":"cake",
			"pbrMetallicRoughness":{
				"baseColorTexture":{
					"index":2
				},
				"metallicFactor":0,
				"roughnessFactor":0.6000000238418579
			}
		},
		{
			"doubleSided":true,
			"name":"candles",
			"pbrMetallicRoughness":{
				"baseColorFactor":[
					0.02895529940724373,
					0.11736511439085007,
					0.6529111266136169,
					1
				],
				"metallicFactor":0,
				"roughnessFactor":0.6000000238418579
			}
		},
		{
			"doubleSided":true,
			"name":"fork",
			"pbrMetallicRoughness":{
				"baseColorTexture":{
					"index":3
				},
				"metallicFactor":0.7988404035568237,
				"roughnessFactor":0.09194923937320709
			}
		},
		{
			"doubleSided":true,
			"name":"flowers",
			"pbrMetallicRoughness":{
				"baseColorTexture":{
					"index":4
				},
				"metallicFactor":0,
				"roughnessFactor":0.6000000238418579
			}
		}
	],
	"meshes":[
		{
			"name":"Object_9.001",
			"primitives":[
				{
					"attributes":{
						"POSITION":0,
						"NORMAL":1,
						"TEXCOORD_0":2
					},
					"indices":3,
					"material":0
				}
			]
		},
		{
			"name":"Object_10.001",
			"primitives":[
				{
					"attributes":{
						"POSITION":4,
						"NORMAL":5,
						"TEXCOORD_0":6
					},
					"indices":7,
					"material":1
				}
			]
		},
		{
			"name":"Object_11.001",
			"primitives":[
				{
					"attributes":{
						"POSITION":8,
						"NORMAL":9,
						"TEXCOORD_0":10
					},
					"indices":11,
					"material":1
				}
			]
		},
		{
			"name":"Object_12.001",
			"primitives":[
				{
					"attributes":{
						"POSITION":12,
						"NORMAL":13,
						"TEXCOORD_0":14
					},
					"indices":15,
					"material":1
				}
			]
		},
		{
			"name":"Object_13.001",
			"primitives":[
				{
					"attributes":{
						"POSITION":16,
						"NORMAL":17,
						"TEXCOORD_0":18
					},
					"indices":19,
					"material":1
				}
			]
		},
		{
			"name":"Object_14.001",
			"primitives":[
				{
					"attributes":{
						"POSITION":20,
						"NORMAL":21,
						"TEXCOORD_0":22
					},
					"indices":23,
					"material":2
				}
			]
		},
		{
			"name":"Object_1.002",
			"primitives":[
				{
					"attributes":{
						"POSITION":24,
						"NORMAL":25,
						"TEXCOORD_0":26
					},
					"indices":27,
					"material":3
				}
			]
		},
		{
			"name":"Object_2.001",
			"primitives":[
				{
					"attributes":{
						"POSITION":28,
						"NORMAL":29,
						"TEXCOORD_0":30
					},
					"indices":31,
					"material":4
				}
			]
		},
		{
			"name":"Object_3.001",
			"primitives":[
				{
					"attributes":{
						"POSITION":32,
						"NORMAL":33,
						"TEXCOORD_0":34
					},
					"indices":35,
					"material":5
				}
			]
		},
		{
			"name":"Object_4.001",
			"primitives":[
				{
					"attributes":{
						"POSITION":36,
						"NORMAL":37,
						"TEXCOORD_0":38
					},
					"indices":39,
					"material":6
				}
			]
		},
		{
			"name":"Object_6.001",
			"primitives":[
				{
					"attributes":{
						"POSITION":40,
						"NORMAL":41,
						"TEXCOORD_0":42
					},
					"indices":43,
					"material":7
				}
			]
		},
		{
			"name":"Object_7.001",
			"primitives":[
				{
					"attributes":{
						"POSITION":44,
						"NORMAL":45,
						"TEXCOORD_0":46
					},
					"indices":47,
					"material":8
				}
			]
		}
	],
	"textures":[
		{
			"sampler":0,
			"source":0
		},
		{
			"sampler":0,
			"source":1
		},
		{
			"sampler":0,
			"source":1
		},
		{
			"sampler":0,
			"source":2
		},
		{
			"sampler":0,
			"source":3
		}
	],
	"images":[
		{
			"mimeType":"image/jpeg",
			"name":"white",
			"uri":"textures/white.jpg"
		},
		{
			"mimeType":"image/jpeg",
			"name":"pink",
			"uri":"textures/pink.jpg"
		},
		{
			"mimeType":"image/jpeg",
			"name":"grey_floor",
			"uri":"textures/grey_floor.jpg"
		},
		{
			"mimeType":"image/jpeg",
			"name":"white_texture",
			"uri":"textures/white_texture.jpg"
		}
	],
	"accessors":[
		{
			"bufferView":0,
			"componentType":5126,
			"count":3520,
			"max":[
				0.9778439998626709,
				0.769491970539093,
				0.05469200015068054
			],
			"min":[
				-1.0023900270462036,
				-1.1798399686813354,
				0.05469200015068054
			],
			"type":"VEC3"
		},
		{
			"bufferView":1,
			"componentType":5126,
			"count":3520,
			"type":"VEC3"
		},
		{
			"bufferView":2,
			"componentType":5126,
			"count":3520,
			"type":"VEC2"
		},
		{
			"bufferView":3,
			"componentType":5123,
			"count":10752,
			"type":"SCALAR"
		},
		{
			"bufferView":4,
			"componentType":5126,
			"count":12562,
			"max":[
				0.523792028427124,
				-0.14701800048351288,
				0.600898027420044
			],
			"min":[
				0.4308539927005768,
				-0.39952901005744934,
				0.521763026714325
			],
			"type":"VEC3"
		},
		{
			"bufferView":5,
			"componentType":5126,
			"count":12562,
			"type":"VEC3"
		},
		{
			"bufferView":6,
			"componentType":5126,
			"count":12562,
			"type":"VEC2"
		},
		{
			"bufferView":7,
			"componentType":5123,
			"count":69108,
			"type":"SCALAR"
		},
		{
			"bufferView":8,
			"componentType":5126,
			"count":46868,
			"max":[
				0.4121739864349365,
				-0.04043100029230118,
				0.6048799753189087
			],
			"min":[
				-0.522441029548645,
				-0.37213799357414246,
				0.5411549806594849
			],
			"type":"VEC3"
		},
		{
			"bufferView":9,
			"componentType":5126,
			"count":46868,
			"type":"VEC3"
		},
		{
			"bufferView":10,
			"componentType":5126,
			"count":46868,
			"type":"VEC2"
		},
		{
			"bufferView":11,
			"componentType":5123,
			"count":276474,
			"type":"SCALAR"
		},
		{
			"bufferView":12,
			"componentType":5126,
			"count":65532,
			"max":[
				0.6085780262947083,
				0.2616040110588074,
				0.605131983757019
			],
			"min":[
				-0.672448992729187,
				-0.06358300149440765,
				0.5176360011100769
			],
			"type":"VEC3"
		},
		{
			"bufferView":13,
			"componentType":5126,
			"count":65532,
			"type":"VEC3"
		},
		{
			"bufferView":14,
			"componentType":5126,
			"count":65532,
			"type":"VEC2"
		},
		{
			"bufferView":15,
			"componentType":5123,
			"count":389406,
			"type":"SCALAR"
		},
		{
			"bufferView":16,
			"componentType":5126,
			"count":5000,
			"max":[
				0.6060919761657715,
				0.25292399525642395,
				0.5969570279121399
			],
			"min":[
				-0.672448992729187,
				-0.03928599879145622,
				0.5176360011100769
			],
			"type":"VEC3"
		},
		{
			"bufferView":17,
			"componentType":5126,
			"count":5000,
			"type":"VEC3"
		},
		{
			"bufferView":18,
			"componentType":5126,
			"count":5000,
			"type":"VEC2"
		},
		{
			"bufferView":19,
			"componentType":5123,
			"count":26457,
			"type":"SCALAR"
		},
		{
			"bufferView":20,
			"componentType":5126,
			"count":170,
			"max":[
				1.0479780435562134,
				0.9449909925460815,
				0.05469200015068054
			],
			"min":[
				-1.0710339546203613,
				-1.2775750160217285,
				0.0016400000313296914
			],
			"type":"VEC3"
		},
		{
			"bufferView":21,
			"componentType":5126,
			"count":170,
			"type":"VEC3"
		},
		{
			"bufferView":22,
			"componentType":5126,
			"count":170,
			"type":"VEC2"
		},
		{
			"bufferView":23,
			"componentType":5123,
			"count":600,
			"type":"SCALAR"
		},
		{
			"bufferView":24,
			"componentType":5126,
			"count":73839,
			"max":[
				0.942022979259491,
				0.7733759880065918,
				0.12443599849939346
			],
			"min":[
				-0.974448025226593,
				-1.1079620122909546,
				-0.12443599849939346
			],
			"type":"VEC3"
		},
		{
			"bufferView":25,
			"componentType":5126,
			"count":73839,
			"type":"VEC3"
		},
		{
			"bufferView":26,
			"componentType":5126,
			"count":73839,
			"type":"VEC2"
		},
		{
			"bufferView":27,
			"componentType":5125,
			"count":407040,
			"type":"SCALAR"
		},
		{
			"bufferView":28,
			"componentType":5126,
			"count":790,
			"max":[
				0.8211399912834167,
				0.5499969720840454,
				0.9706820249557495
			],
			"min":[
				-0.8261470198631287,
				-0.8152869939804077,
				0.848924994468689
			],
			"type":"VEC3"
		},
		{
			"bufferView":29,
			"componentType":5126,
			"count":790,
			"type":"VEC3"
		},
		{
			"bufferView":30,
			"componentType":5126,
			"count":790,
			"type":"VEC2"
		},
		{
			"bufferView":31,
			"componentType":5123,
			"count":3360,
			"type":"SCALAR"
		},
		{
			"bufferView":32,
			"componentType":5126,
			"count":410,
			"max":[
				0.8789680004119873,
				0.7209179997444153,
				0.5880630016326904
			],
			"min":[
				-0.8789680004119873,
				-1.046110987663269,
				0.040853001177310944
			],
			"type":"VEC3"
		},
		{
			"bufferView":33,
			"componentType":5126,
			"count":410,
			"type":"VEC3"
		},
		{
			"bufferView":34,
			"componentType":5126,
			"count":410,
			"type":"VEC2"
		},
		{
			"bufferView":35,
			"componentType":5123,
			"count":1212,
			"type":"SCALAR"
		},
		{
			"bufferView":36,
			"componentType":5126,
			"count":12947,
			"max":[
				0.8076000213623047,
				0.5498170256614685,
				0.9313229918479919
			],
			"min":[
				-0.8222500085830688,
				-0.8116120100021362,
				0.499769002199173
			],
			"type":"VEC3"
		},
		{
			"bufferView":37,
			"componentType":5126,
			"count":12947,
			"type":"VEC3"
		},
		{
			"bufferView":38,
			"componentType":5126,
			"count":12947,
			"type":"VEC2"
		},
		{
			"bufferView":39,
			"componentType":5123,
			"count":42654,
			"type":"SCALAR"
		},
		{
			"bufferView":40,
			"componentType":5126,
			"count":2622,
			"max":[
				-1.1251139640808105,
				0.2506980001926422,
				0.08075699955224991
			],
			"min":[
				-1.384281039237976,
				-1.1131099462509155,
				0.00816699955612421
			],
			"type":"VEC3"
		},
		{
			"bufferView":41,
			"componentType":5126,
			"count":2622,
			"type":"VEC3"
		},
		{
			"bufferView":42,
			"componentType":5126,
			"count":2622,
			"type":"VEC2"
		},
		{
			"bufferView":43,
			"componentType":5123,
			"count":3528,
			"type":"SCALAR"
		},
		{
			"bufferView":44,
			"componentType":5126,
			"count":1549,
			"max":[
				0.8483849763870239,
				0.6416239738464355,
				0.6063960194587708
			],
			"min":[
				-0.856357991695404,
				-0.9588140249252319,
				0.5906429886817932
			],
			"type":"VEC3"
		},
		{
			"bufferView":45,
			"componentType":5126,
			"count":1549,
			"type":"VEC3"
		},
		{
			"bufferView":46,
			"componentType":5126,
			"count":1549,
			"type":"VEC2"
		},
		{
			"bufferView":47,
			"componentType":5123,
			"count":2640,
			"type":"SCALAR"
		}
	],
	"bufferViews":[
		{
			"buffer":0,
			"byteLength":42240,
			"byteOffset":0,
			"target":34962
		},
		{
			"buffer":0,
			"byteLength":42240,
			"byteOffset":42240,
			"target":34962
		},
		{
			"buffer":0,
			"byteLength":28160,
			"byteOffset":84480,
			"target":34962
		},
		{
			"buffer":0,
			"byteLength":21504,
			"byteOffset":112640,
			"target":34963
		},
		{
			"buffer":0,
			"byteLength":150744,
			"byteOffset":134144,
			"target":34962
		},
		{
			"buffer":0,
			"byteLength":150744,
			"byteOffset":284888,
			"target":34962
		},
		{
			"buffer":0,
			"byteLength":100496,
			"byteOffset":435632,
			"target":34962
		},
		{
			"buffer":0,
			"byteLength":138216,
			"byteOffset":536128,
			"target":34963
		},
		{
			"buffer":0,
			"byteLength":562416,
			"byteOffset":674344,
			"target":34962
		},
		{
			"buffer":0,
			"byteLength":562416,
			"byteOffset":1236760,
			"target":34962
		},
		{
			"buffer":0,
			"byteLength":374944,
			"byteOffset":1799176,
			"target":34962
		},
		{
			"buffer":0,
			"byteLength":552948,
			"byteOffset":2174120,
			"target":34963
		},
		{
			"buffer":0,
			"byteLength":786384,
			"byteOffset":2727068,
			"target":34962
		},
		{
			"buffer":0,
			"byteLength":786384,
			"byteOffset":3513452,
			"target":34962
		},
		{
			"buffer":0,
			"byteLength":524256,
			"byteOffset":4299836,
			"target":34962
		},
		{
			"buffer":0,
			"byteLength":778812,
			"byteOffset":4824092,
			"target":34963
		},
		{
			"buffer":0,
			"byteLength":60000,
			"byteOffset":5602904,
			"target":34962
		},
		{
			"buffer":0,
			"byteLength":60000,
			"byteOffset":5662904,
			"target":34962
		},
		{
			"buffer":0,
			"byteLength":40000,
			"byteOffset":5722904,
			"target":34962
		},
		{
			"buffer":0,
			"byteLength":52914,
			"byteOffset":5762904,
			"target":34963
		},
		{
			"buffer":0,
			"byteLength":2040,
			"byteOffset":5815820,
			"target":34962
		},
		{
			"buffer":0,
			"byteLength":2040,
			"byteOffset":5817860,
			"target":34962
		},
		{
			"buffer":0,
			"byteLength":1360,
			"byteOffset":5819900,
			"target":34962
		},
		{
			"buffer":0,
			"byteLength":1200,
			"byteOffset":5821260,
			"target":34963
		},
		{
			"buffer":0,
			"byteLength":886068,
			"byteOffset":5822460,
			"target":34962
		},
		{
			"buffer":0,
			"byteLength":886068,
			"byteOffset":6708528,
			"target":34962
		},
		{
			"buffer":0,
			"byteLength":590712,
			"byteOffset":7594596,
			"target":34962
		},
		{
			"buffer":0,
			"byteLength":1628160,
			"byteOffset":8185308,
			"target":34963
		},
		{
			"buffer":0,
			"byteLength":9480,
			"byteOffset":9813468,
			"target":34962
		},
		{
			"buffer":0,
			"byteLength":9480,
			"byteOffset":9822948,
			"target":34962
		},
		{
			"buffer":0,
			"byteLength":6320,
			"byteOffset":9832428,
			"target":34962
		},
		{
			"buffer":0,
			"byteLength":6720,
			"byteOffset":9838748,
			"target":34963
		},
		{
			"buffer":0,
			"byteLength":4920,
			"byteOffset":9845468,
			"target":34962
		},
		{
			"buffer":0,
			"byteLength":4920,
			"byteOffset":9850388,
			"target":34962
		},
		{
			"buffer":0,
			"byteLength":3280,
			"byteOffset":9855308,
			"target":34962
		},
		{
			"buffer":0,
			"byteLength":2424,
			"byteOffset":9858588,
			"target":34963
		},
		{
			"buffer":0,
			"byteLength":155364,
			"byteOffset":9861012,
			"target":34962
		},
		{
			"buffer":0,
			"byteLength":155364,
			"byteOffset":10016376,
			"target":34962
		},
		{
			"buffer":0,
			"byteLength":103576,
			"byteOffset":10171740,
			"target":34962
		},
		{
			"buffer":0,
			"byteLength":85308,
			"byteOffset":10275316,
			"target":34963
		},
		{
			"buffer":0,
			"byteLength":31464,
			"byteOffset":10360624,
			"target":34962
		},
		{
			"buffer":0,
			"byteLength":31464,
			"byteOffset":10392088,
			"target":34962
		},
		{
			"buffer":0,
			"byteLength":20976,
			"byteOffset":10423552,
			"target":34962
		},
		{
			"buffer":0,
			"byteLength":7056,
			"byteOffset":10444528,
			"target":34963
		},
		{
			"buffer":0,
			"byteLength":18588,
			"byteOffset":10451584,
			"target":34962
		},
		{
			"buffer":0,
			"byteLength":18588,
			"byteOffset":10470172,
			"target":34962
		},
		{
			"buffer":0,
			"byteLength":12392,
			"byteOffset":10488760,
			"target":34962
		},
		{
			"buffer":0,
			"byteLength":5280,
			"byteOffset":10501152,
			"target":34963
		}
	],
	"samplers":[
		{
			"magFilter":9729,
			"minFilter":9987
		}
	],
	"buffers":[
		{
			"byteLength":10506432,
			"uri":"coraline.bin"
		}
	]
}
